<?xml version="1.0"?>
<svg xmlns="http://www.w3.org/2000/svg" viewBox="0 0 64 64" width="512" height="512"><g id="cold-coronavirus-covid19-breath-people"><path d="M42,27a1,1,0,0,1-.556-1.832l1.567-1.044L38.553,21.9a1,1,0,0,1,.894-1.79l6,3a1,1,0,0,1,.108,1.727l-3,2A1,1,0,0,1,42,27Z"/><path d="M54.437,36.323c-2.553-7.08-4.189-11.675-4.437-12.46A22,22,0,0,0,26.839,2.03,22,22,0,0,0,13.175,40.258,8.965,8.965,0,0,1,15.993,48.3L14.012,60.844A1,1,0,0,0,15,62H37a1,1,0,0,0,.976-.783L39.8,53H46a3,3,0,0,0,3-3V46a1,1,0,0,0-2,0v4a1,1,0,0,1-1,1H32.657a3.02,3.02,0,0,1-2.121-.878l-1.829-1.829a1,1,0,0,0-1.414,1.414l1.829,1.829A4.966,4.966,0,0,0,32.657,53h5.1L36.2,60H16.17l1.8-11.393a10.958,10.958,0,0,0-3.446-9.825A20,20,0,1,1,41.772,9.5,19.835,19.835,0,0,1,48,24.033c.008.222.013.368,4.556,12.967H48a1,1,0,0,0-1,1v4H41a1,1,0,0,0,0,2h7a1,1,0,0,0,1-1V39h3.556a2,2,0,0,0,1.881-2.677Z"/><path d="M54,49a3,3,0,0,1-3-3c0-1.278,1.522-3.621,2.177-4.568a1.038,1.038,0,0,1,1.646,0C55.478,42.379,57,44.722,57,46A3,3,0,0,1,54,49Zm0-5.146A7.457,7.457,0,0,0,53,46a1,1,0,0,0,2,0A7.462,7.462,0,0,0,54,43.854Z"/><path d="M54,62a4,4,0,0,1-4-4c0-1.874,2.646-5.8,3.177-6.568a1.038,1.038,0,0,1,1.646,0C55.354,52.2,58,56.126,58,58A4,4,0,0,1,54,62Zm0-8.179c-1.067,1.705-2,3.517-2,4.179a2,2,0,0,0,4,0C56,57.337,55.067,55.525,54,53.821Z"/></g></svg>
