<svg height="512" viewBox="0 0 64 64" width="512" xmlns="http://www.w3.org/2000/svg"><g id="coronavirus-virus-covid19-corona-cell"><path d="m33 7.816a3 3 0 1 0 -2 0v3.184h2zm-1-3.816a1 1 0 1 1 -1 1 1 1 0 0 1 1-1z"/><path d="m52.949 33h3.235a3 3 0 1 0 0-2h-3.235a20.805 20.805 0 0 0 -2.3-8.612l5.391-3.113a2.971 2.971 0 0 0 3.44.323 3.01 3.01 0 1 0 -4.44-2.055l-5.394 3.114a21.151 21.151 0 0 0 -6.3-6.3l1.12-1.94a2.851 2.851 0 0 0 3.136-1.43 3 3 0 1 0 -4.873.439l-1.114 1.929a20.829 20.829 0 0 0 -19.224 0l-1.114-1.928a3.295 3.295 0 1 0 -1.737.992l1.12 1.94a21.139 21.139 0 0 0 -6.3 6.3l-5.4-3.115a3.042 3.042 0 1 0 -1.01 1.726l5.4 3.118a20.805 20.805 0 0 0 -2.299 8.612h-3.235a3 3 0 1 0 0 2h3.235a20.805 20.805 0 0 0 2.3 8.612l-5.393 3.114a3 3 0 1 0 1 1.732l5.4-3.115a21.139 21.139 0 0 0 6.3 6.3l-1.115 1.932a3 3 0 1 0 1.732 1l1.114-1.928a20.824 20.824 0 0 0 8.611 2.302v3.235a3 3 0 1 0 2 0v-3.235a20.809 20.809 0 0 0 8.612-2.3l1.114 1.929a3 3 0 0 0 -.325 3.438 3 3 0 1 0 2.058-4.438l-1.116-1.933a21.151 21.151 0 0 0 6.3-6.3l5.394 3.114a2.967 2.967 0 0 0 1.443 3.141 3.01 3.01 0 1 0 -.44-4.873l-5.391-3.113a20.805 20.805 0 0 0 2.3-8.614zm4.066-16.259a1 1 0 1 1 1.465 1.125 1 1 0 0 1 -1.365-.366.988.988 0 0 1 -.1-.759zm-12.881-7.757a1 1 0 1 1 .366 1.365 1 1 0 0 1 -.366-1.365zm-26 1a1 1 0 1 1 1.366.366 1 1 0 0 1 -1.366-.367zm-11.249 7.516a1 1 0 1 1 -.366-1.366 1 1 0 0 1 .366 1.366zm-.366 30.366a1 1 0 1 1 -1-1.732 1 1 0 1 1 1 1.732zm13.347 7.151a1 1 0 1 1 -.865-1.5 1 1 0 0 1 .865 1.5zm26-1a1 1 0 1 1 -1.366-.365 1 1 0 0 1 1.366.364zm11.249-7.517a1 1 0 1 1 -.1.759 1 1 0 0 1 .1-.759zm1.885-15.5a1 1 0 1 1 -1 1 1 1 0 0 1 1-1zm-54 2a1 1 0 1 1 1-1 1 1 0 0 1 -1 1zm27 27a1 1 0 1 1 1-1 1 1 0 0 1 -1 1zm10.344-12.084-2.478-4.291a1 1 0 1 0 -1.732 1l2.477 4.29a18.824 18.824 0 0 1 -17.222 0l2.477-4.29a1 1 0 1 0 -1.732-1l-2.478 4.291a18.983 18.983 0 0 1 -8.605-14.916h2.949a1 1 0 0 0 0-2h-2.949a18.983 18.983 0 0 1 8.6-14.916l2.478 4.291a1 1 0 1 0 1.732-1l-2.477-4.29a18.824 18.824 0 0 1 17.222 0l-2.477 4.29a1 1 0 1 0 1.732 1l2.478-4.291a18.983 18.983 0 0 1 8.61 14.916h-4.949a1 1 0 0 0 0 2h4.949a18.983 18.983 0 0 1 -8.605 14.916z"/><path d="m29 27a3 3 0 1 0 -3-3 3 3 0 0 0 3 3zm0-4a1 1 0 1 1 -1 1 1 1 0 0 1 1-1z"/><path d="m25 31a3 3 0 1 0 -3 3 3 3 0 0 0 3-3zm-3 1a1 1 0 1 1 1-1 1 1 0 0 1 -1 1z"/><path d="m30 37a3 3 0 1 0 3 3 3 3 0 0 0 -3-3zm0 4a1 1 0 1 1 1-1 1 1 0 0 1 -1 1z"/><path d="m43 37a3 3 0 1 0 -3 3 3 3 0 0 0 3-3zm-3 1a1 1 0 1 1 1-1 1 1 0 0 1 -1 1z"/><path d="m29 32a3 3 0 1 0 3-3 3 3 0 0 0 -3 3zm4 0a1 1 0 1 1 -1-1 1 1 0 0 1 1 1z"/><path d="m39 29a3 3 0 1 0 -3-3 3 3 0 0 0 3 3zm0-4a1 1 0 1 1 -1 1 1 1 0 0 1 1-1z"/><path d="m45.293 27.707 1 1a1 1 0 0 0 1.414-1.414l-1-1a1 1 0 0 0 -1.414 1.414z"/><path d="m44.707 20.293a1 1 0 0 0 -1.414 0l-1 1a1 1 0 1 0 1.414 1.414l1-1a1 1 0 0 0 0-1.414z"/><path d="m36 40a1 1 0 0 0 -1 1v1a1 1 0 0 0 2 0v-1a1 1 0 0 0 -1-1z"/><path d="m21 40a1 1 0 0 0 -1 1v1a1 1 0 0 0 2 0v-1a1 1 0 0 0 -1-1z"/><path d="m20.293 23.707a1 1 0 0 0 1.414-1.414l-1-1a1 1 0 0 0 -1.414 1.414z"/><path d="m29 45a1 1 0 0 0 -1 1v1a1 1 0 0 0 2 0v-1a1 1 0 0 0 -1-1z"/><path d="m43 41a1 1 0 0 0 -1 1v1a1 1 0 0 0 2 0v-1a1 1 0 0 0 -1-1z"/><path d="m35 22a1 1 0 0 0 1-1v-1a1 1 0 0 0 -2 0v1a1 1 0 0 0 1 1z"/><path d="m30 18h1a1 1 0 0 0 0-2h-1a1 1 0 0 0 0 2z"/><path d="m47 35h-1a1 1 0 0 0 0 2h1a1 1 0 0 0 0-2z"/><path d="m18 28h1a1 1 0 0 0 0-2h-1a1 1 0 0 0 0 2z"/><path d="m19 36h-1a1 1 0 0 0 0 2h1a1 1 0 0 0 0-2z"/><path d="m40 32a1 1 0 0 0 1 1h1a1 1 0 0 0 0-2h-1a1 1 0 0 0 -1 1z"/><path d="m34.707 45.293a1 1 0 0 0 -1.414 1.414l1 1a1 1 0 0 0 1.414-1.414z"/><path d="m26.707 35.293a1 1 0 0 0 -1.414 0l-1 1a1 1 0 1 0 1.414 1.414l1-1a1 1 0 0 0 0-1.414z"/></g></svg>