<?xml version="1.0"?>
<svg xmlns="http://www.w3.org/2000/svg" viewBox="0 0 64 64" width="512" height="512"><g id="cough-breath-coronavirus-covid19-virus"><path d="M29,49a4,4,0,1,0-4,4A4,4,0,0,0,29,49Zm-4,2a2,2,0,1,1,2-2A2,2,0,0,1,25,51Z"/><path d="M19.261,44.868a1,1,0,0,0-1.351.421,7.939,7.939,0,0,0-.447,1.023,1,1,0,0,0,.606,1.277.988.988,0,0,0,.336.059,1,1,0,0,0,.942-.665,5.836,5.836,0,0,1,.335-.764A1,1,0,0,0,19.261,44.868Z"/><path d="M17.947,49.516a1,1,0,0,0-.764,1.19,7.869,7.869,0,0,0,.312,1.069,1,1,0,1,0,1.876-.693,5.93,5.93,0,0,1-.234-.8A1,1,0,0,0,17.947,49.516Z"/><path d="M25.227,55a1,1,0,0,0,.037,2H25.3a8.073,8.073,0,0,0,1.107-.119,1,1,0,1,0-.349-1.968A6.113,6.113,0,0,1,25.227,55Z"/><path d="M21.026,55.944a1,1,0,1,0,.994-1.735,6,6,0,0,1-.694-.465A1,1,0,1,0,20.1,55.325,8.07,8.07,0,0,0,21.026,55.944Z"/><path d="M21.454,43.964a1,1,0,0,0,.506-.138,6.133,6.133,0,0,1,.748-.373,1,1,0,0,0-.766-1.848,8.182,8.182,0,0,0-1,.5,1,1,0,0,0,.508,1.862Z"/><path d="M31.935,50.972a1,1,0,0,0,.989-.863A8.21,8.21,0,0,0,33,49v-.1a.967.967,0,0,0-1.009-.94A1.036,1.036,0,0,0,31,49a6.123,6.123,0,0,1-.058.835,1,1,0,0,0,.854,1.128A1.081,1.081,0,0,0,31.935,50.972Z"/><path d="M30.9,46.227a1,1,0,0,0,.84-1.541,8.181,8.181,0,0,0-.663-.892,1,1,0,0,0-1.519,1.3,6.2,6.2,0,0,1,.5.672A1,1,0,0,0,30.9,46.227Z"/><path d="M26.8,43.275a.973.973,0,0,0,.3.047,1,1,0,0,0,.3-1.955,7.948,7.948,0,0,0-1.084-.259,1,1,0,0,0-.327,1.973A6.028,6.028,0,0,1,26.8,43.275Z"/><path d="M29.693,55.2a.992.992,0,0,0,.669-.258,8.021,8.021,0,0,0,.773-.8A1,1,0,1,0,29.6,52.851a6.109,6.109,0,0,1-.58.6,1,1,0,0,0,.671,1.742Z"/><path d="M56.073,60.038l-4.956-1.329,1.3-1.147a1,1,0,0,0-.4-1.716l-6.762-1.812a1,1,0,1,0-.518,1.932L49.7,57.294l-1.3,1.147a1,1,0,0,0,.4,1.717l6.762,1.811a.967.967,0,0,0,.259.035,1,1,0,0,0,.258-1.966Z"/><path d="M61,52H55.869l.963-1.445A1,1,0,0,0,56,49H49a1,1,0,0,0,0,2h5.131l-.963,1.445A1,1,0,0,0,54,54h7a1,1,0,0,0,0-2Z"/><path d="M48.105,45.447a1,1,0,0,0,1.342.448L54,43.618V46a1,1,0,0,0,1.6.8l5.892-4.4a1,1,0,0,0-1.2-1.6L56,44.005V42a1,1,0,0,0-1.447-.9l-6,3A1,1,0,0,0,48.105,45.447Z"/><path d="M37.168,26.555a1,1,0,0,0,1.387.277l3-2a1,1,0,0,0-.108-1.727l-6-3a1,1,0,0,0-.894,1.79l4.459,2.229-1.567,1.044A1,1,0,0,0,37.168,26.555Z"/><path d="M45,50V46a1,1,0,0,0-2,0v4a1,1,0,0,1-1,1H35a1,1,0,0,0-.976.783L32.2,60H12.17l1.8-11.393a10.958,10.958,0,0,0-3.446-9.825A20,20,0,0,1,22.941,4.027,20,20,0,0,1,44,24.033c.008.222.013.368,4.556,12.967H44a1,1,0,0,0-1,1v4H37a1,1,0,0,0,0,2h7a1,1,0,0,0,1-1V39h3.556a2,2,0,0,0,1.881-2.677c-2.553-7.08-4.189-11.675-4.437-12.46A22,22,0,0,0,22.839,2.03,22,22,0,0,0,9.175,40.258,8.965,8.965,0,0,1,11.993,48.3L10.012,60.844A1,1,0,0,0,11,62H33a1,1,0,0,0,.976-.783L35.8,53H42A3,3,0,0,0,45,50Z"/></g></svg>
