<?xml version="1.0"?>
<svg xmlns="http://www.w3.org/2000/svg" viewBox="0 0 64 64" width="512" height="512"><g id="drug-medical-coronavirus-covid19-hand"><path d="M41.38,23.91a.974.974,0,0,0-.46-.61l-3.47-2a1,1,0,0,0-1.36.37l-.5.87-1.73-1a7,7,0,0,0-2.57-9.57l-15.58-9H15.7l-1.73-1a3,3,0,0,0-4.09,1.1l-8,13.86a3,3,0,0,0,1.09,4.1l17.32,10a7,7,0,0,0,3.49.94,7.187,7.187,0,0,0,1.83-.24,7.016,7.016,0,0,0,4.25-3.27l1.73,1-.5.87a1.01,1.01,0,0,0,.36,1.37l3.47,2a1.013,1.013,0,0,0,1.37-.37l5-8.66A1,1,0,0,0,41.38,23.91ZM3.97,19.29a.993.993,0,0,1-.36-1.36l8-13.86a.981.981,0,0,1,1.36-.36l.87.5-9,15.58Zm2.6,1.5,9-15.58,13.86,8-9,15.58Zm24.29,5.94a2.018,2.018,0,0,0-2.74.73,4.9,4.9,0,0,1-3.03,2.33,4.954,4.954,0,0,1-2.88-.08l8.9-15.42a5.015,5.015,0,0,1,1.01,6.25,2.041,2.041,0,0,0-.2,1.51,1.987,1.987,0,0,0,.94,1.22l1.73,1-2,3.46Zm4.19,4.73-1.73-1,4-6.92,1.73,1Z"/><path d="M54,37H51.5a3.947,3.947,0,0,0,.62-2.12,4,4,0,0,0-1.17-2.83,4.1,4.1,0,0,0-5.66,0l-4.24,4.24a3.99,3.99,0,0,0,2.83,6.82,4.152,4.152,0,0,0,.7-.07A3.979,3.979,0,0,0,48,45h6a4,4,0,0,0,0-8ZM44,41c0,.03.01.06.01.09a1.976,1.976,0,0,1-1.54-3.38l1.41-1.42,1.61,1.62A3.978,3.978,0,0,0,44,41Zm6,2H48a2,2,0,0,1,0-4h2Zm-.47-6.71-.7.71H48a4.534,4.534,0,0,0-.53.05l-2.18-2.17,1.42-1.41a1.992,1.992,0,0,1,2.82,0,1.98,1.98,0,0,1,0,2.82ZM54,43H52V39h2a2,2,0,0,1,0,4Z"/><path d="M62.32,49.45a4.031,4.031,0,0,0-4.93-2.62L46.48,49.75a4.026,4.026,0,0,0-2.66-2.36L30.83,43.93a11.082,11.082,0,0,0-7.59.83l-2.26,1.13a1.03,1.03,0,0,1-.45.11H20V45a1,1,0,0,0-1-1H16V43a1,1,0,0,0-1-1H3a1,1,0,0,0-1,1V61a1,1,0,0,0,1,1H15a1,1,0,0,0,1-1V60h3a1,1,0,0,0,1-1V58h.39a1.023,1.023,0,0,1,.56.17l1.49.99a4.959,4.959,0,0,0,2.77.84H37.16a14.977,14.977,0,0,0,3.88-.51l8.22-2.2,10.27-2.76a3.992,3.992,0,0,0,2.98-3.87A3.827,3.827,0,0,0,62.32,49.45ZM14,60H4V44H14Zm4-2H16V46h2Zm41.02-5.41-18.5,4.97a13.188,13.188,0,0,1-3.36.44H25.21a3.026,3.026,0,0,1-1.67-.5l-1.47-.98A2.952,2.952,0,0,0,20.39,56H20V48h.53a2.971,2.971,0,0,0,1.34-.32l2.26-1.13a9.052,9.052,0,0,1,6.22-.68L43.3,49.33a2,2,0,0,1,1.47,1.74,1.852,1.852,0,0,1-.06.71,1.993,1.993,0,0,1-1.93,1.48,1.722,1.722,0,0,1-.52-.07l-7-1.88a1,1,0,0,0-.52,1.94l7,1.88a4.421,4.421,0,0,0,1.04.13,4,4,0,0,0,3.86-2.95,3.387,3.387,0,0,0,.1-.57l11.17-2.98a2.071,2.071,0,0,1,2.51,1.3,2,2,0,0,1-1.4,2.53Z"/><path d="M20.83,22.1a1,1,0,0,0,1.366-.366l2-3.464A1,1,0,0,0,23.83,16.9l-1.731-1,1-1.732a1,1,0,0,0-.367-1.366l-3.464-2a1,1,0,0,0-1.367.366l-1,1.732-1.731-1a1,1,0,0,0-1.366.366l-2,3.464A1,1,0,0,0,12.17,17.1l1.731,1-1,1.732a1,1,0,0,0,.367,1.366l3.464,2A1,1,0,0,0,18.1,22.83l1-1.732Zm-2.356-3.332a1,1,0,0,0-.608.466l-1,1.732-1.732-1,1-1.732a1,1,0,0,0-.366-1.366l-1.732-1,1-1.732,1.732,1a1,1,0,0,0,1.366-.366l1-1.732,1.732,1-1,1.732a1,1,0,0,0,.366,1.366l1.732,1-1,1.732-1.732-1A1,1,0,0,0,18.474,18.766Z"/></g></svg>
