<?xml version="1.0"?>
<svg xmlns="http://www.w3.org/2000/svg" viewBox="0 0 64 64" width="512" height="512"><g id="facemask-coronavirus-faceshield-protect-covid19"><path d="M59.5,55.22A16.956,16.956,0,0,0,42.6,40H39a1,1,0,0,1-1-1V38h8.62a5.006,5.006,0,0,0,4.98-5.45L50.08,15.79A2.995,2.995,0,0,0,49,10H46.94A9.016,9.016,0,0,0,38,2H32a5.013,5.013,0,0,0-3.54,1.47,4.562,4.562,0,0,0-.6.73A4,4,0,0,0,25,3H24a7.008,7.008,0,0,0-7,7H15a2.995,2.995,0,0,0-1.08,5.79L12.4,32.55A5.006,5.006,0,0,0,17.38,38H26v1a1,1,0,0,1-1,1H21.39A16.95,16.95,0,0,0,4.48,55.28L4,60.92A.995.995,0,0,0,5,62H59a1,1,0,0,0,1-1.09ZM38,33.9A9.608,9.608,0,0,1,32.2,36h-.18A9.861,9.861,0,0,1,26,33.99V26.75l6-1.71,6,1.71Zm10.83,1.12a2.955,2.955,0,0,1-2.21.98H38.51c.39-.27.77-.55,1.14-.86l.05-.05a.01.01,0,0,0,.01-.01A12.5,12.5,0,0,0,43.91,27H45a3.009,3.009,0,0,0,3-3V21a2.986,2.986,0,0,0-1-2.22V16h1.09l1.52,16.73A2.935,2.935,0,0,1,48.83,35.02ZM40,31.8V26.41l2-2v1.23c0,.09,0,.19-.01.33A10.537,10.537,0,0,1,40,31.8ZM45,18H43.9a4.84,4.84,0,0,0-.93-2H45Zm1,3v3a1,1,0,0,1-1,1H44V20h1A1,1,0,0,1,46,21ZM24,5h1a2.006,2.006,0,0,1,2,2,1,1,0,0,0,2,0,2.988,2.988,0,0,1,3-3h6a7,7,0,0,1,6.92,6H19A5,5,0,0,1,24,5ZM14,13a1,1,0,0,1,1-1H49a1,1,0,0,1,0,2H15A1,1,0,0,1,14,13Zm8,11.41,2,2v5.57A9.979,9.979,0,0,1,22,26ZM19,18V16h2.03a4.84,4.84,0,0,0-.93,2Zm1,2v5H19a1,1,0,0,1-1-1V21a1,1,0,0,1,1-1ZM17.38,36a3.016,3.016,0,0,1-2.99-3.27L15.91,16H17v2.78A2.986,2.986,0,0,0,16,21v3a3.009,3.009,0,0,0,3,3h1.06a11.958,11.958,0,0,0,4.23,8.19h.01l.06.06.01-.01a.01.01,0,0,1,.01.01l-.01.01a10.327,10.327,0,0,0,1,.74Zm7.91-11.12L22,21.59V19a3.009,3.009,0,0,1,3-3H39a3.009,3.009,0,0,1,3,3v2.59l-3.29,3.29-6.44-1.84a.991.991,0,0,0-.54,0ZM25,42a3.009,3.009,0,0,0,3-3V38h8v1a3.009,3.009,0,0,0,3,3h3.39a12,12,0,0,1-20.78,0ZM48,60V53a1,1,0,0,0-2,0v7H18V53a1,1,0,0,0-2,0v7H6.09l.38-4.53A14.955,14.955,0,0,1,19.42,42.14a14,14,0,0,0,25.16,0A14.95,14.95,0,0,1,57.51,55.41l.4,4.59Z"/><path d="M36,23a1,1,0,0,0,1-1V21a1,1,0,0,0-2,0v1A1,1,0,0,0,36,23Z"/><path d="M28,23a1,1,0,0,0,1-1V21a1,1,0,0,0-2,0v1A1,1,0,0,0,28,23Z"/><path d="M29,30h6a1,1,0,0,0,0-2H29a1,1,0,0,0,0,2Z"/><path d="M36,32a1,1,0,0,0-1-1H29a1,1,0,0,0,0,2h6A1,1,0,0,0,36,32Z"/></g></svg>
