<svg height="512" viewBox="0 0 64 64" width="512" xmlns="http://www.w3.org/2000/svg"><g id="facemask-coronavirus-mask-protect-covid19"><path d="m50.394 43.53a35.2 35.2 0 0 1 -36.719.039 1 1 0 1 0 -1.05 1.7 37.206 37.206 0 0 0 38.821-.041 1 1 0 1 0 -1.052-1.7z"/><path d="m16.953 40.554a37.062 37.062 0 0 0 30.155-.021 1 1 0 0 0 -.816-1.826 35.063 35.063 0 0 1 -28.525.02 1 1 0 1 0 -.814 1.827z"/><path d="m22.471 34.5a36.777 36.777 0 0 0 9.521 1.251 36.988 36.988 0 0 0 9.577-1.261 1 1 0 1 0 -.518-1.932 34.91 34.91 0 0 1 -18.062.01 1 1 0 1 0 -.518 1.932z"/><path d="m62.21 11.08a8.106 8.106 0 1 0 -16.142 1.09l1.516 11.53-.083-.091a21 21 0 0 0 -31 0l-.083.091 1.514-11.53a8.106 8.106 0 1 0 -16.142-1.09 7.639 7.639 0 0 0 .045.875l2.616 24.856a8.947 8.947 0 0 0 .565 12.314l1.241 1.2a36.84 36.84 0 0 0 51.486 0l1.241-1.2a8.947 8.947 0 0 0 .565-12.314l2.614-24.845a7.514 7.514 0 0 0 .047-.886zm-58.42 0a6.106 6.106 0 1 1 12.158.83l-1.889 14.367-7.806 8.542-2.43-23.085a5.729 5.729 0 0 1 -.033-.654zm53.8 36.608-1.241 1.2a34.849 34.849 0 0 1 -48.7 0l-1.241-1.2a6.965 6.965 0 0 1 -.3-9.75l11.865-12.98a19 19 0 0 1 28.048 0l11.865 12.98a6.965 6.965 0 0 1 -.294 9.75zm2.583-35.942-2.426 23.073-7.806-8.542-1.889-14.367a6.106 6.106 0 1 1 12.158-.83 5.634 5.634 0 0 1 -.035.666z"/></g></svg>