<?xml version="1.0"?>
<svg xmlns="http://www.w3.org/2000/svg" viewBox="0 0 64 64" width="512" height="512"><g id="handshake-covid19-coronavirus-hand-touch"><path d="M11,16a1,1,0,0,0,1-1h1.142a3.915,3.915,0,0,0,.425,1.019l-.81.81a1,1,0,0,0-1.414,1.414l1.414,1.414a1,1,0,0,0,1.414-1.414l.81-.81A3.915,3.915,0,0,0,16,17.858V19a1,1,0,0,0,0,2h2a1,1,0,0,0,0-2V17.858a3.915,3.915,0,0,0,1.019-.425l.81.81a1,1,0,1,0,1.414,1.414l1.414-1.414a1,1,0,0,0-1.414-1.414l-.81-.81A3.915,3.915,0,0,0,20.858,15H22a1,1,0,0,0,2,0V13a1,1,0,0,0-2,0H20.858a3.915,3.915,0,0,0-.425-1.019l.81-.81a1,1,0,0,0,1.414-1.414L21.243,8.343a1,1,0,0,0-1.414,1.414l-.81.81A3.915,3.915,0,0,0,18,10.142V9a1,1,0,0,0,0-2H16a1,1,0,0,0,0,2v1.142a3.915,3.915,0,0,0-1.019.425l-.81-.81a1,1,0,0,0-1.414-1.414L11.343,9.757a1,1,0,1,0,1.414,1.414l.81.81A3.915,3.915,0,0,0,13.142,13H12a1,1,0,0,0-2,0v2A1,1,0,0,0,11,16Zm6-4a2,2,0,1,1-2,2A2,2,0,0,1,17,12Z"/><path d="M8,50a1,1,0,0,0-1,1v2a1,1,0,0,0,2,0V51A1,1,0,0,0,8,50Z"/><path d="M62,22H54a1,1,0,0,0-1,1v1H51.27a2.97,2.97,0,0,1-1.66-.5L38.62,16.18a1.01,1.01,0,0,0-1.26.11l-.5.49a4.01,4.01,0,0,0,.47,6.12L38.88,24H28.11a3.087,3.087,0,0,0-3.1,2.72,3.053,3.053,0,0,0,.21,1.41,3.024,3.024,0,0,0-2.21,2.59,2.983,2.983,0,0,0,.86,2.39,3.029,3.029,0,0,0,1.11.7L16.45,39.5a2.97,2.97,0,0,1-1.66.5H13V39a1,1,0,0,0-1-1H4a1,1,0,0,0-1,1V57a1,1,0,0,0,1,1h8a1,1,0,0,0,1-1V56h.79a2.97,2.97,0,0,1,1.66.5l.99.66a4.959,4.959,0,0,0,2.77.84H34a3,3,0,0,0,3-3,3,3,0,0,0-.17-1H38a3,3,0,0,0,3-3,2.873,2.873,0,0,0-.21-1.1,2.942,2.942,0,0,0,1.32-.77,2.977,2.977,0,0,0,.88-2.39,3.037,3.037,0,0,0-2.21-2.61,2.97,2.97,0,0,0,.21-1.39,2.671,2.671,0,0,0-.18-.74h5.98a5.016,5.016,0,0,0,2.78-.84l.97-.66a3,3,0,0,1,1.67-.5H53v1a1,1,0,0,0,1,1h8a1,1,0,0,0,1-1V23A1,1,0,0,0,62,22ZM11,56H5V40h6Zm30-9.09a.985.985,0,0,1-.31.8A.928.928,0,0,1,40,48H28a1,1,0,0,0,0,2H38a1,1,0,0,1,1,1,.949.949,0,0,1-.31.71A.928.928,0,0,1,38,52H28a1,1,0,0,0,0,2h6a1,1,0,0,1,1,1,.949.949,0,0,1-.31.71A.928.928,0,0,1,34,56H19.21a2.97,2.97,0,0,1-1.66-.5l-.99-.66A4.959,4.959,0,0,0,13.79,54H13V42h1.79a4.959,4.959,0,0,0,2.77-.84l10.31-6.87a2.022,2.022,0,0,1,.5,1.49,1.984,1.984,0,0,1-.83,1.46l-4.12,2.95A1,1,0,0,0,24,42H37.89a1.092,1.092,0,0,1,1.11.91.985.985,0,0,1-.31.8A.928.928,0,0,1,38,44H28a1,1,0,0,0,0,2H39.89A1.092,1.092,0,0,1,41,46.91ZM30.18,40H27.12l1.58-1.13a3.737,3.737,0,0,0,.86-.87h.61A3,3,0,0,0,30,39,3.051,3.051,0,0,0,30.18,40ZM53,38h-.79a5.016,5.016,0,0,0-2.78.84l-.97.66a3,3,0,0,1-1.67.5H33a.949.949,0,0,1-.71-.31A.928.928,0,0,1,32,39a1,1,0,0,1,1-1h5a1,1,0,0,0,0-2H30.35c0-.02.01-.03.01-.05A3.943,3.943,0,0,0,30.01,34H38a1,1,0,0,0,0-2H26a.949.949,0,0,1-.71-.31.93.93,0,0,1-.28-.78,1.074,1.074,0,0,1,1.1-.91H38a1,1,0,0,0,0-2H28a.949.949,0,0,1-.71-.31.93.93,0,0,1-.28-.78,1.074,1.074,0,0,1,1.1-.91H41.09A6.007,6.007,0,0,0,47,31a1,1,0,0,0,0-2,4,4,0,0,1-4-4,1,1,0,0,0-.38-.77c-.01-.01-4.12-2.96-4.12-2.96a2.015,2.015,0,0,1-.32-2.98L48.5,25.16a4.983,4.983,0,0,0,2.77.84H53Zm8,2H55V24h6Z"/><path d="M58,38a1,1,0,0,0,1-1V35a1,1,0,0,0-2,0v2A1,1,0,0,0,58,38Z"/><path d="M17,26A12,12,0,1,0,5,14,12.013,12.013,0,0,0,17,26ZM17,4A10,10,0,1,1,7,14,10.011,10.011,0,0,1,17,4Z"/></g></svg>
