<?xml version="1.0"?>
<svg xmlns="http://www.w3.org/2000/svg" viewBox="0 0 64 64" width="512" height="512"><g id="handwash-covid19-coronavirus-cleaning-hygiene"><path d="M51.5,2A10.512,10.512,0,0,0,41,12.5v.55A2.5,2.5,0,0,0,41.5,18h7a2.5,2.5,0,0,0,.5-4.95V12.5a2.5,2.5,0,0,1,5,0V54H45.82c-.01-.03-.02-.07-.03-.1a2.942,2.942,0,0,0,1.32-.77,2.977,2.977,0,0,0,.88-2.39,3.037,3.037,0,0,0-2.21-2.61,2.922,2.922,0,0,0,.2-1.28,2.9,2.9,0,0,0,1.11-1.24,3.036,3.036,0,0,0-.6-3.37,3.151,3.151,0,0,0,.87-1.1,3.073,3.073,0,0,0-1.32-3.91l-9.31-5.39,1.92-.18a4.018,4.018,0,0,0,3.48-5.03l-.18-.67a1.019,1.019,0,0,0-1.03-.74l-13.19.84a2.973,2.973,0,0,1-1.69-.39l-6.74-3.9.49-.86a.985.985,0,0,0-.36-1.36l-6.93-4a.963.963,0,0,0-.76-.1,1,1,0,0,0-.61.46l-9,15.59a1.01,1.01,0,0,0,.37,1.37l6.93,4a1.063,1.063,0,0,0,.5.13,1.222,1.222,0,0,0,.26-.03,1.006,1.006,0,0,0,.6-.47l.5-.87,5.88,3.4a2.9,2.9,0,0,1,1.19,1.26l.52,1.06a5.163,5.163,0,0,0,1.99,2.13l.31.17a2.926,2.926,0,0,1-1.39.35H12V43a1,1,0,0,0-1-1H3a1,1,0,0,0-1,1V61a1,1,0,0,0,1,1h8a1,1,0,0,0,1-1V60h6.79a2.97,2.97,0,0,1,1.66.5l.99.66a4.959,4.959,0,0,0,2.77.84H61a1,1,0,0,0,1-1V12.5A10.512,10.512,0,0,0,51.5,2ZM10,60H4V44h6ZM48.5,16h-7a.5.5,0,0,1,0-1h7a.5.5,0,0,1,0,1ZM9.56,34.63l-5.19-3,8-13.85,5.19,3-.49.85-.01.01v.01Zm11.12,5.84-.53-1.07a5.034,5.034,0,0,0-1.98-2.11L12.29,33.9l6-10.39,6.75,3.89a4.892,4.892,0,0,0,2.82.66l12.36-.79a1.96,1.96,0,0,1-.32,1.54,1.937,1.937,0,0,1-1.44.85s-4.03.38-4.46.43a3.865,3.865,0,0,0-1,.19.949.949,0,0,0-.32.31,4.644,4.644,0,0,1-5.59,1.77l-.72-.29a1,1,0,0,0-.74,1.86l.72.29a6.662,6.662,0,0,0,7.43-1.77l11.26,6.51a1.058,1.058,0,0,1,.5,1.34.96.96,0,0,1-.65.54.993.993,0,0,1-.75-.1L37.5,36.91a1,1,0,0,0-1,1.73l6.62,3.82c.01.01.01.02.02.02l1.64.93a1.1,1.1,0,0,1,.51,1.34,1.491,1.491,0,0,1-.15.2A3.158,3.158,0,0,0,42.89,44h-1.1l-4.98-2.87a1,1,0,1,0-1,1.73L37.78,44H32.12l1.58-1.13a3.995,3.995,0,0,0,.5-6.08l-.49-.5a1,1,0,0,0-1.26-.12l-9.39,6.26-1.18-.68A3.018,3.018,0,0,1,20.68,40.47ZM39.69,59.71A.928.928,0,0,1,39,60H24.21a2.97,2.97,0,0,1-1.66-.5l-.99-.66A4.959,4.959,0,0,0,18.79,58H12V46h7.79a4.959,4.959,0,0,0,2.77-.84l10.31-6.87a2.022,2.022,0,0,1,.5,1.49,1.984,1.984,0,0,1-.83,1.46l-1.95,1.4a1.037,1.037,0,0,0-.33.23l-1.84,1.32A1,1,0,0,0,29,46H42.89a1.092,1.092,0,0,1,1.11.91.985.985,0,0,1-.31.8A.928.928,0,0,1,43,48H33a1,1,0,0,0,0,2H44.89a1.092,1.092,0,0,1,1.11.91.985.985,0,0,1-.31.8A.928.928,0,0,1,45,52H33a1,1,0,0,0,0,2H43a1,1,0,0,1,1,1,.949.949,0,0,1-.31.71A.928.928,0,0,1,43,56H33a1,1,0,0,0,0,2h6a1,1,0,0,1,1,1A.949.949,0,0,1,39.69,59.71ZM60,60H41.82A3.051,3.051,0,0,0,42,59a3,3,0,0,0-.17-1H43a2.98,2.98,0,0,0,2.82-2H60Zm0-6H56V12.5a4.5,4.5,0,0,0-9,0V13H43v-.5a8.5,8.5,0,0,1,17,0Z"/><path d="M44,32a4,4,0,0,0,8,0c0-2.041-2.819-4.347-3.385-4.788a1,1,0,0,0-1.23,0C46.819,27.653,44,29.959,44,32Zm4-2.694c1.051.945,2,2.111,2,2.694a2,2,0,0,1-4,0C46,31.417,46.949,30.251,48,29.306Z"/><path d="M45.687,19.274a1,1,0,0,0-1.375,0C43.77,19.788,42,21.576,42,23a3,3,0,0,0,6,0C48,21.576,46.23,19.788,45.687,19.274ZM45,24a1,1,0,0,1-1-1,4.3,4.3,0,0,1,1-1.553A4.289,4.289,0,0,1,46,23,1,1,0,0,1,45,24Z"/><path d="M7,54a1,1,0,0,0-1,1v2a1,1,0,0,0,2,0V55A1,1,0,0,0,7,54Z"/><path d="M9.964,27.938A1,1,0,0,0,8.6,28.3l-1,1.732a1,1,0,1,0,1.732,1l1-1.732A1,1,0,0,0,9.964,27.938Z"/></g></svg>
