<?xml version="1.0"?>
<svg xmlns="http://www.w3.org/2000/svg" viewBox="0 0 64 64" width="512" height="512"><g id="lungs-covid19-virus-xray-coronavirus"><path d="M8,14H9.142a3.915,3.915,0,0,0,.425,1.019l-.81.81a1,1,0,0,0-1.414,1.414l1.414,1.414a1,1,0,0,0,1.414-1.414l.81-.81A3.915,3.915,0,0,0,12,16.858V18a1,1,0,0,0,0,2h2a1,1,0,0,0,0-2V16.858a3.915,3.915,0,0,0,1.019-.425l.81.81a1,1,0,1,0,1.414,1.414l1.414-1.414a1,1,0,0,0-1.414-1.414l-.81-.81A3.915,3.915,0,0,0,16.858,14H18a1,1,0,0,0,2,0V12a1,1,0,0,0-2,0H16.858a3.915,3.915,0,0,0-.425-1.019l.81-.81a1,1,0,0,0,1.414-1.414L17.243,7.343a1,1,0,0,0-1.414,1.414l-.81.81A3.915,3.915,0,0,0,14,9.142V8a1,1,0,0,0,0-2H12a1,1,0,0,0,0,2V9.142a3.915,3.915,0,0,0-1.019.425l-.81-.81A1,1,0,0,0,8.757,7.343L7.343,8.757a1,1,0,1,0,1.414,1.414l.81.81A3.915,3.915,0,0,0,9.142,12H8a1,1,0,0,0-2,0v2a1,1,0,0,0,2,0Zm5-3a2,2,0,1,1-2,2A2,2,0,0,1,13,11Z"/><path d="M61,4H19.3A10.858,10.858,0,0,0,13,2,11.007,11.007,0,0,0,2,13a10.858,10.858,0,0,0,2,6.3V61a1,1,0,0,0,1,1H61a1,1,0,0,0,1-1V5A1,1,0,0,0,61,4ZM4,13a9,9,0,1,1,9,9A9.014,9.014,0,0,1,4,13ZM60,60H6V21.48A11,11,0,0,0,21.48,6H60Z"/><path d="M40.12,27l-1.39-.35A3,3,0,0,0,35,29.56v6.03l-1-1V15a1,1,0,0,0-2,0V34.59l-1,1V29.56a3,3,0,0,0-3.73-2.91L25.88,27A16.986,16.986,0,0,0,13,43.49v8.39a5,5,0,0,0,4.99,5,5.031,5.031,0,0,0,1.22-.15l4.97-1.24A9,9,0,0,0,31,46.75V38.41l2-2,2,2v8.34a9,9,0,0,0,6.82,8.74l4.97,1.24a4.992,4.992,0,0,0,4.29-.91A4.979,4.979,0,0,0,53,51.88V43.49A16.986,16.986,0,0,0,40.12,27ZM29,37.59l-4.09,4.09L22,39.5V37a1,1,0,0,0-2,0v2.58l-1.71,1.71a1,1,0,0,0,1.42,1.42l1.38-1.39,2.39,1.79L20.59,46H18a1,1,0,0,0,0,2h2v3a1,1,0,0,0,2,0V47.41l2.01-2,1.28,1.29A.976.976,0,0,0,26,47a1,1,0,0,0,.7-.29.987.987,0,0,0,.01-1.41l-1.29-1.31L29,40.41v6.34a6.987,6.987,0,0,1-5.3,6.79l-4.97,1.25a3.022,3.022,0,0,1-2.58-.55A2.975,2.975,0,0,1,15,51.88V43.49A14.977,14.977,0,0,1,26.36,28.94l1.4-.35a.986.986,0,0,1,.24-.03.99.99,0,0,1,1,1ZM51,51.88a2.975,2.975,0,0,1-1.15,2.36,3.022,3.022,0,0,1-2.58.55L42.3,53.54A6.987,6.987,0,0,1,37,46.75V40.41l3.58,3.58L39.29,45.3a.987.987,0,0,0,.01,1.41A1,1,0,0,0,40,47a.976.976,0,0,0,.71-.3l1.28-1.29,2.01,2V51a1,1,0,0,0,2,0V48h2a1,1,0,0,0,0-2H45.41l-2.89-2.89,2.39-1.79,1.38,1.39a1,1,0,0,0,1.42-1.42L46,39.58V37a1,1,0,0,0-2,0v2.5l-2.91,2.18L37,37.59V29.56a.99.99,0,0,1,1-1,.986.986,0,0,1,.24.03l1.4.35A14.977,14.977,0,0,1,51,43.49Z"/><path d="M56,10h1a1,1,0,0,0,0-2H56a1,1,0,0,0,0,2Z"/><path d="M51,10h1a1,1,0,0,0,0-2H51a1,1,0,0,0,0,2Z"/><path d="M46,10h1a1,1,0,0,0,0-2H46a1,1,0,0,0,0,2Z"/><path d="M41,10h1a1,1,0,0,0,0-2H41a1,1,0,0,0,0,2Z"/><path d="M36,10h1a1,1,0,0,0,0-2H36a1,1,0,0,0,0,2Z"/><path d="M31,10h1a1,1,0,0,0,0-2H31a1,1,0,0,0,0,2Z"/><path d="M26,10h1a1,1,0,0,0,0-2H26a1,1,0,0,0,0,2Z"/></g></svg>
