<?xml version="1.0"?>
<svg xmlns="http://www.w3.org/2000/svg" viewBox="0 0 64 64" width="512" height="512"><g id="mobilephone-covid19-coronavirus-hospital-message"><path d="M18,42V39h3a1,1,0,0,0,1-1V34a1,1,0,0,0-1-1H18V30a1,1,0,0,0-1-1H13a1,1,0,0,0-1,1v3H9a1,1,0,0,0-1,1v4a1,1,0,0,0,1,1h3v3a1,1,0,0,0,1,1h4A1,1,0,0,0,18,42Zm-2-4v3H14V38a1,1,0,0,0-1-1H10V35h3a1,1,0,0,0,1-1V31h2v3a1,1,0,0,0,1,1h3v2H17A1,1,0,0,0,16,38Z"/><path d="M34,49H30a1,1,0,0,0-1,1v4a1,1,0,0,0,1,1h4a1,1,0,0,0,1-1V50A1,1,0,0,0,34,49Zm-1,4H31V51h2Z"/><path d="M26,49H22a1,1,0,0,0-1,1v4a1,1,0,0,0,1,1h4a1,1,0,0,0,1-1V50A1,1,0,0,0,26,49Zm-1,4H23V51h2Z"/><path d="M37,50v4a1,1,0,0,0,1,1h4a1,1,0,0,0,1-1V50a1,1,0,0,0-1-1H38A1,1,0,0,0,37,50Zm2,1h2v2H39Z"/><path d="M31,7h2a1,1,0,0,0,0-2H31a1,1,0,0,0,0,2Z"/><path d="M61.52,23.38A13.014,13.014,0,0,0,51,13.91V7a5,5,0,0,0-5-5H18a5,5,0,0,0-5,5V23.17a12.982,12.982,0,0,0,0,25.66V57a5,5,0,0,0,5,5H46a5,5,0,0,0,5-5V39.58a12.594,12.594,0,0,0,1.33-.28A13.015,13.015,0,0,0,61.52,23.38ZM15,7a3.009,3.009,0,0,1,3-3H46a3.009,3.009,0,0,1,3,3v6.75c-.33,0-.67.01-1,.03V8a3.009,3.009,0,0,0-3-3H39.07a2.977,2.977,0,0,0-2.49,1.33l-.82,1.23a1.024,1.024,0,0,1-.83.44H29.07a1.008,1.008,0,0,1-.83-.45l-.82-1.21A2.963,2.963,0,0,0,24.93,5H19a3.009,3.009,0,0,0-3,3V23.04c-.33-.03-.67-.04-1-.04ZM36.41,30.11a12.672,12.672,0,0,0,1.58,3.59l-2.11,5.24a1,1,0,0,0,.22,1.08.976.976,0,0,0,.71.3.986.986,0,0,0,.37-.08l5.4-2.17A12.936,12.936,0,0,0,46,39.41V56a1,1,0,0,1-1,1H19a1,1,0,0,1-1-1V48.64A13.025,13.025,0,0,0,28,36a12.852,12.852,0,0,0-3.71-9.1l.7-5.78a1,1,0,0,0-1.59-.92l-4.52,3.39c-.29-.09-.58-.17-.88-.24V8a1,1,0,0,1,1-1h5.93a1.008,1.008,0,0,1,.83.45l.82,1.21A2.963,2.963,0,0,0,29.07,10h5.86a2.977,2.977,0,0,0,2.49-1.33l.82-1.23A1.024,1.024,0,0,1,39.07,7H45a1,1,0,0,1,1,1v6.1c-.13.03-.27.05-.4.08A13.021,13.021,0,0,0,36.41,30.11ZM4,36A11,11,0,0,1,18.72,25.65a1.018,1.018,0,0,0,.94-.14l3.07-2.3-.48,3.94a1,1,0,0,0,.3.85A10.876,10.876,0,0,1,26,36,11,11,0,0,1,4,36ZM49,57a3.009,3.009,0,0,1-3,3H18a3.009,3.009,0,0,1-3-3V49c.34,0,.67-.03,1-.05V56a3.009,3.009,0,0,0,3,3H45a3.009,3.009,0,0,0,3-3V39.7c.33.03.67.04,1,.04Zm2.81-19.63a10.92,10.92,0,0,1-8.62-1.26,1.011,1.011,0,0,0-.9-.08l-3.68,1.48,1.43-3.55a1.009,1.009,0,0,0-.11-.95,11,11,0,1,1,11.88,4.36Z"/><path d="M30,44a1,1,0,0,0,0-2H29a1,1,0,0,0,0,2Z"/><path d="M34,42H33a1,1,0,0,0,0,2h1a1,1,0,0,0,0-2Z"/><path d="M37,44h1a1,1,0,0,0,0-2H37a1,1,0,0,0,0,2Z"/><path d="M25,16H24a1,1,0,0,0,0,2h1a1,1,0,0,0,0-2Z"/><path d="M29,18a1,1,0,0,0,0-2H28a1,1,0,0,0,0,2Z"/><path d="M32,18h1a1,1,0,0,0,0-2H32a1,1,0,0,0,0,2Z"/><path d="M54,25H51.5a3.992,3.992,0,0,0-6.2-4.947l-4.24,4.24a3.992,3.992,0,0,0,2.829,6.819,4.09,4.09,0,0,0,.7-.074A3.989,3.989,0,0,0,48,33h6a4,4,0,0,0,0-8Zm-4.467-3.533a1.994,1.994,0,0,1,0,2.826L48.826,25H48a3.9,3.9,0,0,0-.532.054L45.294,22.88l1.413-1.413A2,2,0,0,1,49.533,21.467Zm-7.066,7.066a2,2,0,0,1,0-2.826l1.413-1.413,1.614,1.614A3.976,3.976,0,0,0,44,29c0,.033.009.063.01.095A1.986,1.986,0,0,1,42.467,28.533ZM46,29a2,2,0,0,1,2-2h2v4H48A2,2,0,0,1,46,29Zm8,2H52V27h2a2,2,0,0,1,0,4Z"/></g></svg>
