<?xml version="1.0"?>
<svg xmlns="http://www.w3.org/2000/svg" viewBox="0 0 64 64" width="512" height="512"><g id="people-coronavirus-tempurature-scan-covid19"><path d="M38,27a1,1,0,0,1-.556-1.832l1.567-1.044L34.553,21.9a1,1,0,0,1,.894-1.79l6,3a1,1,0,0,1,.108,1.727l-3,2A1,1,0,0,1,38,27Z"/><path d="M50.437,36.323C47.923,29.352,46.251,24.656,46,23.862A22,22,0,0,0,22.838,2.03,22,22,0,0,0,9.175,40.258,8.966,8.966,0,0,1,11.993,48.3l-1.98,12.549A1,1,0,0,0,11,62H33a1,1,0,0,0,.977-.783L35.8,53H42a3,3,0,0,0,3-3V46a1,1,0,0,0-2,0v4a1,1,0,0,1-1,1H28.657a2.983,2.983,0,0,1-2.122-.878l-1.828-1.829a1,1,0,0,0-1.414,1.414l1.828,1.829A4.968,4.968,0,0,0,28.657,53h5.1L32.2,60H12.17l1.8-11.393a10.953,10.953,0,0,0-3.445-9.825A20,20,0,1,1,37.772,9.5,19.845,19.845,0,0,1,44,24.035c.008.223.013.371,4.555,12.965H44a1,1,0,0,0-1,1v4H37a1,1,0,0,0,0,2h7a1,1,0,0,0,1-1V39h3.556a2,2,0,0,0,1.881-2.677Z"/><path d="M60,51.53V6a4,4,0,0,0-8,0V51.53a6,6,0,1,0,8,0ZM56,60a4,4,0,0,1-2.4-7.2A1.014,1.014,0,0,0,54,52V6a2.006,2.006,0,0,1,2-2,2.015,2.015,0,0,1,2,2v6H56v2h2v2H56v2h2v1H55V54.28a2,2,0,1,0,2,0V49h1v3a1.014,1.014,0,0,0,.4.8A4,4,0,0,1,56,60Zm1-17V41h1v2Zm1,2v2H57V45Zm-1-6V37h1v2Zm0-4V33h1v2Zm0-4V29h1v2Zm0-4V25h1v2Zm0-4V21h1v2Z"/></g></svg>
