<?xml version="1.0"?>
<svg xmlns="http://www.w3.org/2000/svg" viewBox="0 0 64 64" width="512" height="512"><g id="protect-safe-coronavirus-covid19-protection"><path d="M54.625,12.3A28.007,28.007,0,0,0,51.7,9.376,30,30,0,0,0,9.372,51.693,28.064,28.064,0,0,0,12.3,54.624,30,30,0,0,0,54.625,12.3ZM32,60a27.956,27.956,0,0,1-18.388-6.887,26.432,26.432,0,0,1-2.728-2.73,28,28,0,0,1,39.5-39.5,26.355,26.355,0,0,1,2.724,2.726l0,0A28,28,0,0,1,32,60Z"/><path d="M49.2,12.93a1,1,0,0,0-.35-.722,25.991,25.991,0,0,0-36.641,36.64,1,1,0,0,0,.722.351h.04a1,1,0,0,0,.707-.293l35.23-35.23A1,1,0,0,0,49.2,12.93Zm-28.031,17.2,2.846.763a1,1,0,0,0,.517-1.932L21.68,28.2a10.9,10.9,0,0,1,4.814-5.727,11.152,11.152,0,0,1,1.707-.79L29.223,25.5a1,1,0,0,0,.964.742.974.974,0,0,0,.26-.035,1,1,0,0,0,.707-1.225l-1.022-3.814A10.89,10.89,0,0,1,37.356,22.4L22.4,37.359A10.921,10.921,0,0,1,21.168,30.133ZM36.4,15.58a1,1,0,0,1,.26-1.967,1.053,1.053,0,0,1,.259.034A1,1,0,0,1,36.4,15.58Zm2.416,5.36a12.787,12.787,0,0,0-2.5-1.2l.576-2.15a3,3,0,1,0-1.931-.52l-.578,2.157a12.917,12.917,0,0,0-4.773,0l-.577-2.154a3,3,0,0,0,1.2-3.237h0a3,3,0,1,0-3.134,3.758l.575,2.146a12.73,12.73,0,0,0-4.138,2.388l-1.57-1.57a2.967,2.967,0,0,0-.578-3.407h0a3.012,3.012,0,1,0-.838,4.82l1.575,1.575a12.873,12.873,0,0,0-2.383,4.137l-2.154-.577a2.962,2.962,0,0,0-2.2-2.662,3.009,3.009,0,0,0-3.674,2.121,3,3,0,0,0,2.121,3.675,3.027,3.027,0,0,0,.782.1,2.964,2.964,0,0,0,2.458-1.3l2.159.578a12.924,12.924,0,0,0-.016,4.774l-2.143.575a2.994,2.994,0,0,0-5.361,2.472,3,3,0,0,0,5.5.723,2.967,2.967,0,0,0,.382-1.264l2.16-.578a12.994,12.994,0,0,0,1.194,2.49l-7.9,7.9A23.99,23.99,0,0,1,46.709,13.046ZM27.6,15.58a1,1,0,0,1-1.126-1.467,1,1,0,0,1,.607-.466,1.059,1.059,0,0,1,.259-.034,1,1,0,0,1,.26,1.967Zm-7.329,3.692a1,1,0,0,1-1.707.708,1,1,0,1,1,1.414-1.415h0A.989.989,0,0,1,20.272,19.272ZM15.579,27.6h0a1,1,0,0,1-1.932-.518,1,1,0,0,1,1.225-.708,1,1,0,0,1,.707,1.225Zm-1.225,8.093a1.012,1.012,0,0,1,.261-.035,1.006,1.006,0,1,1-.261.035Z"/><path d="M51.792,15.152a1,1,0,0,0-1.469-.059l-35.23,35.23a1,1,0,0,0,.058,1.468A25.991,25.991,0,0,0,51.792,15.152Zm-9.168,19.7a10.93,10.93,0,0,1-2.173,4.184l-2.794-2.793a1,1,0,0,0-1.414,1.414l2.793,2.793a11.145,11.145,0,0,1-1.53,1.077,10.966,10.966,0,0,1-10.863.074L41.6,26.64A10.941,10.941,0,0,1,42.624,34.852ZM36.4,48.42a1,1,0,0,1,1.126,1.467A1,1,0,1,1,36.4,48.42Zm-9.057-.034a1,1,0,1,1-.26,1.967,1,1,0,0,1,.26-1.967ZM32,56a24.017,24.017,0,0,1-14.71-5.047l7.894-7.894a12.742,12.742,0,0,0,2.5,1.2l-.576,2.152a3,3,0,1,0,1.931.518l.576-2.15a13.059,13.059,0,0,0,2.414.23,12.783,12.783,0,0,0,2.358-.245l.58,2.165a3,3,0,0,0-1.2,3.237h0a3.006,3.006,0,0,0,2.9,2.223,2.993,2.993,0,0,0,.237-5.978l-.581-2.167a12.226,12.226,0,0,0,4.143-2.37l1.57,1.57a2.967,2.967,0,0,0,.578,3.407h0a3,3,0,1,0,.838-4.82l-1.575-1.575a12.873,12.873,0,0,0,2.383-4.137l2.154.577a2.962,2.962,0,0,0,2.2,2.662,3,3,0,0,0,3.674-2.121,2.992,2.992,0,0,0-5.361-2.472l-2.16-.579a12.909,12.909,0,0,0,.018-4.771l2.143-.577a2.96,2.96,0,0,0,2.457,1.3,3.033,3.033,0,0,0,.782-.1,3.012,3.012,0,1,0-3.757-3.133l-2.159.581a13,13,0,0,0-1.2-2.494l7.9-7.9A23.99,23.99,0,0,1,32,56ZM43.728,44.728a1,1,0,0,1,1.707-.708,1,1,0,1,1-1.414,1.415h0A.989.989,0,0,1,43.728,44.728ZM48.421,36.4h0a1,1,0,1,1,.1.76A.994.994,0,0,1,48.421,36.4Zm0-8.8a1,1,0,0,1,.965-1.259,1,1,0,0,1,.967.742,1,1,0,1,1-1.932.517Z"/><path d="M27.4,24.858a1,1,0,0,0-1.366-.365l-1.224.707a1,1,0,1,0,1,1.732l1.224-.708A1,1,0,0,0,27.4,24.858Z"/><path d="M28.206,26.842a1,1,0,0,0-1.225.707l-.258.966a1,1,0,0,0,.707,1.225,1.013,1.013,0,0,0,.259.034,1,1,0,0,0,.965-.741l.259-.966A1,1,0,0,0,28.206,26.842Z"/><path d="M38.5,34.777l.966.259a.974.974,0,0,0,.26.035,1,1,0,0,0,.257-1.967l-.965-.258a1,1,0,1,0-.518,1.931Z"/><path d="M31,42h1a1,1,0,0,0,0-2H31a1,1,0,0,0,0,2Z"/><path d="M33.293,39.707a1,1,0,0,0,1.414-1.414l-1-1a1,1,0,0,0-1.414,1.414Z"/><path d="M24,32H23a1,1,0,0,0,0,2h1a1,1,0,0,0,0-2Z"/><path d="M34.707,22.293a1,1,0,0,0-1.414,0l-1,1a1,1,0,1,0,1.414,1.414l1-1A1,1,0,0,0,34.707,22.293Z"/><path d="M41,32a1,1,0,0,0,1-1V30a1,1,0,0,0-2,0v1A1,1,0,0,0,41,32Z"/></g></svg>
