<?xml version="1.0"?>
<svg xmlns="http://www.w3.org/2000/svg" viewBox="0 0 64 64" width="512" height="512"><g id="protection-covid19-coronavirus-hand-glove"><path d="M43,13a18.929,18.929,0,0,0-14,6.14V14.5a3.478,3.478,0,0,0-1.02-2.48A3.52,3.52,0,0,0,25.5,11a3.446,3.446,0,0,0-1.5.35V9.5A3.5,3.5,0,0,0,20.5,6a3.446,3.446,0,0,0-1.5.35V5.5a3.5,3.5,0,0,0-7,0v.85A3.446,3.446,0,0,0,10.5,6,3.5,3.5,0,0,0,7,9.5v9.06A3.906,3.906,0,0,0,5,18H3a1,1,0,0,0-1,1V40.17a3,3,0,0,0,.88,2.13L4.7,44.12a1,1,0,0,1,.3.71V56a3,3,0,0,0,0,6H27a3,3,0,0,0,0-6V44.61a1.023,1.023,0,0,1,.17-.56l.53-.79A19,19,0,1,0,43,13ZM4.3,40.88a1,1,0,0,1-.3-.71V20H5a2.006,2.006,0,0,1,2,2v8a1,1,0,0,0,2,0V9.5a1.5,1.5,0,0,1,3,0V24a1,1,0,0,0,2,0V5.5a1.5,1.5,0,0,1,3,0V24a1,1,0,0,0,2,0V9.5a1.5,1.5,0,0,1,3,0V24a1,1,0,0,0,2,0V14.5A1.5,1.5,0,0,1,25.5,13a1.481,1.481,0,0,1,1.06.44A1.5,1.5,0,0,1,27,14.5v7.25a19.039,19.039,0,0,0-2.35,5.3l-8.1,4.06a1,1,0,0,0,0,1.78l8.1,4.06a19.116,19.116,0,0,0,1.85,4.49l-.98,1.49A2.952,2.952,0,0,0,25,44.61V56H7V44.83a3,3,0,0,0-.88-2.13ZM28,59a1,1,0,0,1-1,1H5a1,1,0,0,1,0-2H27A1,1,0,0,1,28,59ZM43,49a16.956,16.956,0,0,1-14.47-8.07c0-.01-.01-.02-.02-.03a17.175,17.175,0,0,1-2.03-4.88,1,1,0,0,0-.52-.65L19.23,32l6.73-3.37a1,1,0,0,0,.52-.65A17,17,0,1,1,43,49Z"/><path d="M51.98,19.99A15,15,0,0,0,30.99,40.98a1,1,0,0,0,.73.4h.07a1.007,1.007,0,0,0,.71-.29L52.09,21.5a1.03,1.03,0,0,0,.29-.78A1,1,0,0,0,51.98,19.99ZM38.05,32.7A5.364,5.364,0,0,1,38,32a5,5,0,0,1,5-5,5.364,5.364,0,0,1,.7.05Zm7.3-7.29A7,7,0,0,0,44,25.08V23.72a2,2,0,1,0-2,0v1.36a6.985,6.985,0,0,0-3.18,1.32l-.97-.96a1.99,1.99,0,1,0-1.92,1.49,1.807,1.807,0,0,0,.51-.08l.96.97A6.985,6.985,0,0,0,36.08,31H34.72a2,2,0,1,0,0,2h1.36a7,7,0,0,0,.33,1.35l-4.47,4.47A12.991,12.991,0,0,1,49.82,20.94Z"/><path d="M55.01,23.02a1,1,0,0,0-.73-.4,1.044,1.044,0,0,0-.78.29L33.91,42.5a1.03,1.03,0,0,0-.29.78,1,1,0,0,0,.4.73A15,15,0,0,0,55.01,23.02ZM47.95,31.3A5.364,5.364,0,0,1,48,32a5,5,0,0,1-5,5,5.364,5.364,0,0,1-.7-.05ZM43,45a12.892,12.892,0,0,1-6.82-1.94l4.47-4.47a7,7,0,0,0,1.35.33v1.36a2,2,0,1,0,2,0V38.92a6.985,6.985,0,0,0,3.18-1.32l.97.96a2,2,0,1,0,1.41-1.41l-.96-.97A6.985,6.985,0,0,0,49.92,33h1.36a2,2,0,1,0,0-2H49.92a7,7,0,0,0-.33-1.35l4.47-4.47A12.991,12.991,0,0,1,43,45Z"/></g></svg>
