<?xml version="1.0"?>
<svg xmlns="http://www.w3.org/2000/svg" viewBox="0 0 64 64" width="512" height="512"><g id="quarantine-calendar-covid19-coronavirus-protect"><path d="M57,8H52V6a4,4,0,0,0-8,0V8H36V6a4,4,0,0,0-8,0V8H20V6a4,4,0,0,0-8,0V8H7a5,5,0,0,0-5,5V57a5,5,0,0,0,5,5H57a5,5,0,0,0,5-5V13A5,5,0,0,0,57,8ZM46,6a2,2,0,0,1,4,0v6a2,2,0,0,1-4,0ZM30,6a2,2,0,0,1,4,0v6a2,2,0,0,1-4,0ZM14,6a2,2,0,0,1,4,0v6a2,2,0,0,1-4,0ZM60,57a3.009,3.009,0,0,1-3,3H7a3.009,3.009,0,0,1-3-3V22H60Zm0-37H4V13a3.009,3.009,0,0,1,3-3h5v2a4,4,0,0,0,8,0V10h8v2a4,4,0,0,0,8,0V10h8v2a4,4,0,0,0,8,0V10h5a3.009,3.009,0,0,1,3,3Z"/><path d="M44,36h1.184a2.746,2.746,0,0,0,.117.285l-.837.837a1,1,0,1,0,1.414,1.414l.837-.837a2.746,2.746,0,0,0,.285.117V39a1,1,0,0,0,2,0V37.816a2.746,2.746,0,0,0,.285-.117l.837.837a1,1,0,0,0,1.414-1.414l-.837-.837A2.746,2.746,0,0,0,50.816,36H52a1,1,0,0,0,0-2H50.816a2.746,2.746,0,0,0-.117-.285l.837-.837a1,1,0,0,0-1.414-1.414l-.837.837A2.746,2.746,0,0,0,49,32.184V31a1,1,0,0,0-2,0v1.184a2.746,2.746,0,0,0-.285.117l-.837-.837a1,1,0,0,0-1.414,1.414l.837.837a2.746,2.746,0,0,0-.117.285H44a1,1,0,0,0,0,2Zm5-1a1,1,0,1,1-1-1A1,1,0,0,1,49,35Z"/><path d="M10,37h1.142a3.915,3.915,0,0,0,.425,1.019l-.81.81a1,1,0,1,0,1.414,1.414l.81-.81A3.915,3.915,0,0,0,14,39.858V41a1,1,0,0,0,2,0V39.858a3.915,3.915,0,0,0,1.019-.425l.81.81a1,1,0,1,0,1.414-1.414l-.81-.81A3.915,3.915,0,0,0,18.858,37H20a1,1,0,0,0,0-2H18.858a3.915,3.915,0,0,0-.425-1.019l.81-.81a1,1,0,1,0-1.414-1.414l-.81.81A3.915,3.915,0,0,0,16,32.142V31a1,1,0,0,0-2,0v1.142a3.915,3.915,0,0,0-1.019.425l-.81-.81a1,1,0,1,0-1.414,1.414l.81.81A3.915,3.915,0,0,0,11.142,35H10a1,1,0,0,0,0,2Zm5-3a2,2,0,1,1-2,2A2,2,0,0,1,15,34Z"/><path d="M26,35a1,1,0,0,0,1-1h1.142a3.915,3.915,0,0,0,.425,1.019l-.81.81a1,1,0,0,0-1.414,1.414l1.414,1.414a1,1,0,1,0,1.414-1.414l.81-.81A3.915,3.915,0,0,0,31,36.858V38a1,1,0,0,0,0,2h2a1,1,0,0,0,0-2V36.858a3.915,3.915,0,0,0,1.019-.425l.81.81a1,1,0,1,0,1.414,1.414l1.414-1.414a1,1,0,1,0-1.414-1.414l-.81-.81A3.915,3.915,0,0,0,35.858,34H37a1,1,0,0,0,2,0V32a1,1,0,0,0-2,0H35.858a3.915,3.915,0,0,0-.425-1.019l.81-.81a1,1,0,1,0,1.414-1.414l-1.414-1.414a1,1,0,0,0-1.414,1.414l-.81.81A3.915,3.915,0,0,0,33,29.142V28a1,1,0,0,0,0-2H31a1,1,0,0,0,0,2v1.142a3.915,3.915,0,0,0-1.019.425l-.81-.81a1,1,0,0,0-1.414-1.414l-1.414,1.414a1,1,0,1,0,1.414,1.414l.81.81A3.915,3.915,0,0,0,28.142,32H27a1,1,0,0,0-2,0v2A1,1,0,0,0,26,35Zm6-4a2,2,0,1,1-2,2A2,2,0,0,1,32,31Z"/><path d="M17,47v8a1,1,0,0,1-2,0V48.62l-.55.27a1,1,0,0,1-.9-1.78l2-1A1,1,0,0,1,17,47Z"/><path d="M25,52H24V47a1.008,1.008,0,0,0-.71-.96.992.992,0,0,0-1.12.41l-4,6a.963.963,0,0,0-.05,1.02A.984.984,0,0,0,19,54h3v1a1,1,0,0,0,2,0V54h1a1,1,0,0,0,0-2Zm-3,0H20.87L22,50.3Z"/><path d="M31,46H29a1,1,0,0,0-1,1v8a1,1,0,0,0,1,1h2a5,5,0,0,0,0-10Zm0,8H30V48h1a3,3,0,0,1,0,6Z"/><path d="M43.94,54.65l-3-8a1,1,0,0,0-1.88,0l-3,8a1,1,0,1,0,1.88.7l.5-1.35h3.12l.5,1.35A1.012,1.012,0,0,0,43,56a1.03,1.03,0,0,0,.35-.06A1.007,1.007,0,0,0,43.94,54.65ZM39.19,52,40,49.85,40.81,52Z"/><path d="M50.8,47.6,48,51.33V55a1,1,0,0,1-2,0V51.33L43.2,47.6a1,1,0,0,1,1.6-1.2L47,49.33l2.2-2.93a1,1,0,0,1,1.6,1.2Z"/></g></svg>
