<svg height="512" viewBox="0 0 64 64" width="512" xmlns="http://www.w3.org/2000/svg"><g id="thermometer-coronavirus-tempurature-covid19-virus"><path d="m38.778 22.394a3 3 0 0 0 -4.242 0l-9.193 9.191a3 3 0 0 0 0 4.243l2.828 2.829a3 3 0 0 0 4.243 0l9.192-9.193a3 3 0 0 0 0-4.242zm1.414 5.656-9.192 9.193a1.023 1.023 0 0 1 -1.414 0l-2.829-2.829a1 1 0 0 1 0-1.414l9.193-9.192a1 1 0 0 1 1.414 0l2.828 2.828a1 1 0 0 1 0 1.414z"/><path d="m40.192 16.737a3 3 0 0 0 0 4.242l2.829 2.829a3 3 0 0 0 4.242 0l3.537-3.536a3 3 0 0 0 0-4.243l-2.829-2.829a3 3 0 0 0 -4.243 0zm5.657-2.414a1 1 0 0 1 .708.292l2.828 2.828a1 1 0 0 1 0 1.415l-3.536 3.536a1 1 0 0 1 -1.414 0l-2.829-2.829a1 1 0 0 1 0-1.414l3.536-3.536a1 1 0 0 1 .707-.292z"/><path d="m59.28 10.37-5.65-5.65a7.007 7.007 0 0 0 -9.9 0l-20.78 20.78a29.086 29.086 0 0 0 -7.01 11.33l-.06.19a27.142 27.142 0 0 1 -6.52 10.55l-3.82 3.81-2.82 2.83a5 5 0 0 0 0 7.07 4.985 4.985 0 0 0 7.07 0l2.83-2.82 3.81-3.82a27.142 27.142 0 0 1 10.55-6.52l.19-.06a29.086 29.086 0 0 0 11.33-7.01l20.78-20.78a7.007 7.007 0 0 0 0-9.9zm-50.91 49.5a3 3 0 0 1 -4.24-4.24l2.12-2.12 4.24 4.24zm28.72-20.23a27.134 27.134 0 0 1 -10.56 6.52l-.18.06a29.2 29.2 0 0 0 -11.34 7.01l-3.1 3.1-4.24-4.24 3.1-3.1a29.056 29.056 0 0 0 7-11.34l.07-.18a27.134 27.134 0 0 1 6.52-10.56l20.08-20.07 12.72 12.72zm21.42-21.56-12.59-12.59a5.005 5.005 0 0 1 6.29.64l5.66 5.66a5.005 5.005 0 0 1 .64 6.29z"/></g></svg>