<?xml version="1.0"?>
<svg xmlns="http://www.w3.org/2000/svg" viewBox="0 0 64 64" width="512" height="512"><g id="thermometer-man-coronavirus-tempurature-covid19"><path d="M41,36H38a1,1,0,0,1-1-1V32.48A9.01,9.01,0,0,0,41,25V24h.5a3.493,3.493,0,0,0,2.49-5.95c0-.02.01-.03.01-.05V9a7.008,7.008,0,0,0-7-7H33a5.013,5.013,0,0,0-3.54,1.47,4.684,4.684,0,0,0-.79,1.04A2.994,2.994,0,0,0,27,4H25a5,5,0,0,0-5,5v9c0,.02.01.03.01.05A3.493,3.493,0,0,0,22.5,24H23v1a9.01,9.01,0,0,0,4,7.48V35a1,1,0,0,1-1,1H23A11.007,11.007,0,0,0,12,47V57a5,5,0,0,0,5,5H47a5,5,0,0,0,5-5V47A11.007,11.007,0,0,0,41,36Zm2-15.5A1.5,1.5,0,0,1,41.5,22H41V19h.5A1.5,1.5,0,0,1,43,20.5ZM23,22h-.5a1.5,1.5,0,0,1,0-3H23Zm0-7v2h-.5a4.031,4.031,0,0,0-.5.05V9a3.009,3.009,0,0,1,3-3h2a1,1,0,0,1,1,1,1,1,0,0,0,2,0,2.988,2.988,0,0,1,3-3h4a5,5,0,0,1,5,5v8.05a4.031,4.031,0,0,0-.5-.05H41V15a1,1,0,0,0-1-1H38.21a4.781,4.781,0,0,1-4.29-2.48,1.023,1.023,0,0,0-.73-.51.965.965,0,0,0-.84.27l-.2.2A9,9,0,0,1,25.9,14H24A1,1,0,0,0,23,15Zm2,10V16h.9a10.971,10.971,0,0,0,6.96-2.48A6.716,6.716,0,0,0,38.25,16H39v9a7,7,0,0,1-14,0Zm1,13a3.009,3.009,0,0,0,3-3V33.47a8.756,8.756,0,0,0,6,0V35a3.009,3.009,0,0,0,3,3h.05c-1.24,3.04-3.56,5-6.05,5s-4.81-1.96-6.05-5ZM41.15,60H17a3.009,3.009,0,0,1-3-3V56H31.87a3.009,3.009,0,0,0,2.57-1.46l1.83-3.05a1,1,0,0,1,.73-.48V53a1,1,0,0,0,1,1h3a1,1,0,0,1,1,.93ZM50,57a3.009,3.009,0,0,1-3,3H43.18l.67-4H50Zm0-3H44V48.49a1,1,0,0,0-2,0v3.69A3,3,0,0,0,41,52H39V50a1,1,0,0,0-1-1h-.87a3.009,3.009,0,0,0-2.57,1.46l-1.83,3.05a1.012,1.012,0,0,1-.86.49H22V49a1,1,0,0,0-2,0v5H14V47a9.014,9.014,0,0,1,9-9h.82c1.45,4.28,4.6,7,8.18,7s6.73-2.72,8.18-7H41a9.014,9.014,0,0,1,9,9Z"/><path d="M33.211,18.658a4.235,4.235,0,0,0,.832,1.13A.939.939,0,0,0,34,20v1a1,1,0,0,0,2,0v-.127A4.254,4.254,0,0,0,37,21a1,1,0,0,0,0-2,2.224,2.224,0,0,1-2-1.236l-.1-.211a1,1,0,0,0-1.79.894Z"/><path d="M28,21a1,1,0,0,0,2,0V20a.939.939,0,0,0-.043-.212,4.235,4.235,0,0,0,.832-1.13l.106-.211a1,1,0,1,0-1.79-.894L29,17.764A2.224,2.224,0,0,1,27,19a1,1,0,0,0,0,2,4.254,4.254,0,0,0,1-.127Z"/><path d="M30.212,25.615A1,1,0,0,0,31,26h2a1,1,0,0,0,0-2h-.719l.689-2.757a1,1,0,1,0-1.94-.486l-1,4A1,1,0,0,0,30.212,25.615Z"/><path d="M29.293,28.293a1,1,0,0,0,1.414,1.414,1.831,1.831,0,0,1,2.586,0,1,1,0,0,0,1.414-1.414A3.832,3.832,0,0,0,29.293,28.293Z"/><path d="M10,48a1,1,0,0,0-2,0c0,.562-.217.8-.708,1.294a3.483,3.483,0,0,0,0,5.416C7.783,55.2,8,55.442,8,56s-.217.8-.707,1.29A3.565,3.565,0,0,0,6,60a1,1,0,0,0,2,0c0-.561.217-.8.707-1.291a3.48,3.48,0,0,0,0-5.413C8.217,52.806,8,52.565,8,52s.217-.8.708-1.294A3.568,3.568,0,0,0,10,48Z"/><path d="M6.707,42.709a3.48,3.48,0,0,0,0-5.413C6.217,36.806,6,36.565,6,36s.217-.8.708-1.294A3.568,3.568,0,0,0,8,32a1,1,0,0,0-2,0c0,.562-.217.8-.708,1.294a3.483,3.483,0,0,0,0,5.416C5.783,39.2,6,39.442,6,40s-.217.8-.707,1.29A3.565,3.565,0,0,0,4,44a1,1,0,0,0,2,0C6,43.439,6.217,43.2,6.707,42.709Z"/><path d="M12,35a1,1,0,0,0,2,0c0-.562.217-.8.708-1.294a3.483,3.483,0,0,0,0-5.416C14.217,27.8,14,27.558,14,27s.217-.8.707-1.29A3.565,3.565,0,0,0,16,23a1,1,0,0,0-2,0c0,.561-.217.8-.707,1.291a3.48,3.48,0,0,0,0,5.413c.491.49.708.731.708,1.294s-.217.8-.708,1.294A3.568,3.568,0,0,0,12,35Z"/><path d="M59,45a1,1,0,0,0-2,0c0,.561-.217.8-.707,1.291a3.48,3.48,0,0,0,0,5.413c.491.49.708.731.708,1.294s-.217.8-.708,1.294A3.568,3.568,0,0,0,55,57a1,1,0,0,0,2,0c0-.562.217-.8.708-1.294a3.483,3.483,0,0,0,0-5.416C57.217,49.8,57,49.558,57,49s.217-.8.707-1.29A3.565,3.565,0,0,0,59,45Z"/><path d="M60,29.529V6a4,4,0,0,0-8,0V29.529a6,6,0,1,0,8,0ZM58,25H57V23h1Zm0-4H57V19h1Zm0-4H57V15h1ZM56,38a4,4,0,0,1-2.4-7.2A1,1,0,0,0,54,30V6a2,2,0,0,1,4,0V9H56v2h2v2H55V32.278a2,2,0,1,0,2,0V27h1v3a1,1,0,0,0,.4.8A4,4,0,0,1,56,38Z"/></g></svg>
