<?xml version="1.0"?>
<svg xmlns="http://www.w3.org/2000/svg" viewBox="0 0 64 64" width="512" height="512"><g id="thermometer-woman-coronavirus-tempurature-covid19"><path d="M44,37V36c0-.56.22-.8.71-1.29a3.492,3.492,0,0,0,0-5.42C44.22,28.8,44,28.56,44,28s.22-.8.71-1.29A3.6,3.6,0,0,0,46,24V11a7.008,7.008,0,0,0-7-7H37a2.994,2.994,0,0,0-1.67.51,4.712,4.712,0,0,0-.8-1.05A5.005,5.005,0,0,0,31,2H29A11.007,11.007,0,0,0,18,13V27a3.6,3.6,0,0,0,1.29,2.71c.49.49.71.73.71,1.29s-.22.8-.71,1.29A3.6,3.6,0,0,0,18,35a3.33,3.33,0,0,0,1.05,2.45A13.025,13.025,0,0,0,12,49v8a5,5,0,0,0,5,5H47a5,5,0,0,0,5-5V49A13.031,13.031,0,0,0,44,37ZM20.71,33.71a3.492,3.492,0,0,0,0-5.42C20.22,27.8,20,27.56,20,27V13a9.014,9.014,0,0,1,9-9h2a2.988,2.988,0,0,1,3,3,1,1,0,0,0,2,0,1,1,0,0,1,1-1h2a5,5,0,0,1,5,5V24c0,.56-.22.8-.71,1.29a3.492,3.492,0,0,0,0,5.42c.49.49.71.73.71,1.29s-.22.8-.71,1.29A3.6,3.6,0,0,0,42,36v.36c-.27-.06-.54-.11-.81-.16-.03,0-.07-.02-.1-.02A13.1,13.1,0,0,0,39,36H38a1,1,0,0,1-1-1V32.48A9.01,9.01,0,0,0,41,25V15a1,1,0,0,0-1-1H38.21a4.781,4.781,0,0,1-4.29-2.48,1.023,1.023,0,0,0-.73-.51.965.965,0,0,0-.84.27l-.2.2A9,9,0,0,1,25.9,14H24a1,1,0,0,0-1,1V25a9.01,9.01,0,0,0,4,7.48V35a1,1,0,0,1-1,1H25a13.1,13.1,0,0,0-2.09.18c-.03,0-.07.02-.1.02a11.556,11.556,0,0,0-1.78.43c-.11-.12-.22-.24-.32-.34C20.22,35.8,20,35.56,20,35S20.22,34.2,20.71,33.71ZM29,35V33.47a8.756,8.756,0,0,0,6,0V35a3.009,3.009,0,0,0,3,3h1c.15,0,.3.02.45.02a8.963,8.963,0,0,1-14.9,0c.15,0,.3-.02.45-.02h1A3.009,3.009,0,0,0,29,35ZM25,25V16h.9a10.971,10.971,0,0,0,6.96-2.48A6.716,6.716,0,0,0,38.25,16H39v9a7,7,0,0,1-14,0ZM41.15,60H17a3.009,3.009,0,0,1-3-3V56H31.87a3.009,3.009,0,0,0,2.57-1.46l1.83-3.05a1,1,0,0,1,.73-.48V53a1,1,0,0,0,1,1h3a1,1,0,0,1,1,.93ZM50,57a3.009,3.009,0,0,1-3,3H43.18l.67-4H50Zm0-3H44V52.49a6.959,6.959,0,0,0-2.05-4.95l-.24-.25a1,1,0,0,0-1.42,1.42l.25.24a4.973,4.973,0,0,1,1.43,3.22A3.137,3.137,0,0,0,41,52H39V50a1,1,0,0,0-1-1h-.87a3.009,3.009,0,0,0-2.57,1.46l-1.83,3.05a1.012,1.012,0,0,1-.86.49H22V52.49a4.976,4.976,0,0,1,1.46-3.54l.25-.24a1,1,0,0,0-1.42-1.42l-.24.25A6.959,6.959,0,0,0,20,52.49V54H14V49a11.012,11.012,0,0,1,8.38-10.67,11,11,0,0,0,19.24,0A11.012,11.012,0,0,1,50,49Z"/><path d="M37,19a2.224,2.224,0,0,1-2-1.236l-.1-.211a1,1,0,0,0-1.79.894l.106.211a4.235,4.235,0,0,0,.832,1.13A.939.939,0,0,0,34,20v1a1,1,0,0,0,2,0v-.127A4.254,4.254,0,0,0,37,21a1,1,0,0,0,0-2Z"/><path d="M30,21V20a.939.939,0,0,0-.043-.212,4.235,4.235,0,0,0,.832-1.13l.106-.211a1,1,0,1,0-1.79-.894L29,17.764A2.224,2.224,0,0,1,27,19a1,1,0,0,0,0,2,4.254,4.254,0,0,0,1-.127V21a1,1,0,0,0,2,0Z"/><path d="M30.212,25.615A1,1,0,0,0,31,26h2a1,1,0,0,0,0-2h-.719l.689-2.757a1,1,0,1,0-1.94-.486l-1,4A1,1,0,0,0,30.212,25.615Z"/><path d="M29.293,28.293a1,1,0,0,0,1.414,1.414,1.831,1.831,0,0,1,2.586,0,1,1,0,0,0,1.414-1.414A3.832,3.832,0,0,0,29.293,28.293Z"/><path d="M10,45a1,1,0,0,0-2,0c0,.562-.217.8-.708,1.294a3.483,3.483,0,0,0,0,5.416C7.783,52.2,8,52.442,8,53s-.217.8-.707,1.29A3.565,3.565,0,0,0,6,57a1,1,0,0,0,2,0c0-.561.217-.8.707-1.291a3.48,3.48,0,0,0,0-5.413C8.217,49.806,8,49.565,8,49s.217-.8.708-1.294A3.568,3.568,0,0,0,10,45Z"/><path d="M4.708,36.3C4.217,35.806,4,35.565,4,35s.217-.8.708-1.294A3.568,3.568,0,0,0,6,31a1,1,0,0,0-2,0c0,.562-.217.8-.708,1.294a3.483,3.483,0,0,0,0,5.416C3.783,38.2,4,38.442,4,39s-.217.8-.707,1.29A3.565,3.565,0,0,0,2,43a1,1,0,0,0,2,0c0-.561.217-.8.707-1.291a3.48,3.48,0,0,0,0-5.413Z"/><path d="M12.708,34.706a3.483,3.483,0,0,0,0-5.416C12.217,28.8,12,28.558,12,28s.217-.8.707-1.29A3.565,3.565,0,0,0,14,24a1,1,0,0,0-2,0c0,.561-.217.8-.707,1.291a3.48,3.48,0,0,0,0,5.413c.491.49.708.731.708,1.294s-.217.8-.708,1.294A3.568,3.568,0,0,0,10,36a1,1,0,0,0,2,0C12,35.438,12.217,35.2,12.708,34.706Z"/><path d="M59,46a1,1,0,0,0-2,0c0,.561-.217.8-.707,1.291a3.48,3.48,0,0,0,0,5.413c.491.49.708.731.708,1.294s-.217.8-.708,1.294A3.568,3.568,0,0,0,55,58a1,1,0,0,0,2,0c0-.562.217-.8.708-1.294a3.483,3.483,0,0,0,0-5.416C57.217,50.8,57,50.558,57,50s.217-.8.707-1.29A3.565,3.565,0,0,0,59,46Z"/><path d="M60,29.53V6a4,4,0,0,0-8,0V29.53a6,6,0,1,0,8,0ZM56,38a4,4,0,0,1-2.4-7.2A1.014,1.014,0,0,0,54,30V6a2.006,2.006,0,0,1,2-2,2.015,2.015,0,0,1,2,2V9H56v2h2v2H55V32.28a2,2,0,1,0,2,0V27h1v3a1.014,1.014,0,0,0,.4.8A4,4,0,0,1,56,38Zm1-17V19h1v2Zm1,2v2H57V23Zm-1-6V15h1v2Z"/></g></svg>
