<?xml version="1.0"?>
<svg xmlns="http://www.w3.org/2000/svg" viewBox="0 0 64 64" width="512" height="512"><g id="warning-covid19-coronavirus-handshake-sign"><path d="M41.99,50.74a3.037,3.037,0,0,0-2.21-2.61,2.97,2.97,0,0,0,.21-1.39A3.073,3.073,0,0,0,36.89,44H26.12l1.58-1.13a3.995,3.995,0,0,0,.5-6.08l-.49-.5a1,1,0,0,0-1.26-.12l-11,7.33a2.97,2.97,0,0,1-1.66.5H12V43a1,1,0,0,0-1-1H3a1,1,0,0,0-1,1V61a1,1,0,0,0,1,1h8a1,1,0,0,0,1-1V60h.79a2.97,2.97,0,0,1,1.66.5l.99.66a4.959,4.959,0,0,0,2.77.84H33a3,3,0,0,0,3-3,3,3,0,0,0-.17-1H37a3,3,0,0,0,3-3,2.873,2.873,0,0,0-.21-1.1,2.942,2.942,0,0,0,1.32-.77A2.977,2.977,0,0,0,41.99,50.74ZM10,60H4V44h6Zm29.69-8.29A.928.928,0,0,1,39,52H27a1,1,0,0,0,0,2H37a1,1,0,0,1,1,1,.949.949,0,0,1-.31.71A.928.928,0,0,1,37,56H27a1,1,0,0,0,0,2h6a1,1,0,0,1,1,1,.949.949,0,0,1-.31.71A.928.928,0,0,1,33,60H18.21a2.97,2.97,0,0,1-1.66-.5l-.99-.66A4.959,4.959,0,0,0,12.79,58H12V46h1.79a4.959,4.959,0,0,0,2.77-.84l10.31-6.87a2.022,2.022,0,0,1,.5,1.49,1.984,1.984,0,0,1-.83,1.46l-4.12,2.95A1,1,0,0,0,23,46H36.89a1.092,1.092,0,0,1,1.11.91.985.985,0,0,1-.31.8A.928.928,0,0,1,37,48H27a1,1,0,0,0,0,2H38.89a1.092,1.092,0,0,1,1.11.91A.985.985,0,0,1,39.69,51.71Z"/><path d="M7,54a1,1,0,0,0-1,1v2a1,1,0,0,0,2,0V55A1,1,0,0,0,7,54Z"/><path d="M61,8H53a1,1,0,0,0-1,1v1H50.27a2.97,2.97,0,0,1-1.66-.5L37.62,2.18a1.01,1.01,0,0,0-1.26.11l-.5.49a4.01,4.01,0,0,0,.47,6.12L37.88,10H27.11a3.087,3.087,0,0,0-3.1,2.72,3.053,3.053,0,0,0,.21,1.41,3.024,3.024,0,0,0-2.21,2.59,2.983,2.983,0,0,0,.86,2.39,3.063,3.063,0,0,0,1.34.79A2.873,2.873,0,0,0,24,21a3,3,0,0,0,3,3h1.17A3,3,0,0,0,28,25a3,3,0,0,0,3,3h7.12L30.14,41.49A1,1,0,0,0,31,43H55a1,1,0,0,0,.85-1.52L47.47,27.7a5.342,5.342,0,0,0,1.1-.54l.97-.66a3,3,0,0,1,1.67-.5H52v1a1,1,0,0,0,1,1h8a1,1,0,0,0,1-1V9A1,1,0,0,0,61,8ZM53.22,41H32.75l10.1-17.06ZM52,24h-.79a5.016,5.016,0,0,0-2.78.84l-.97.65a2.985,2.985,0,0,1-1.06.44l-2.71-4.45a.986.986,0,0,0-.85-.48h-.01a1,1,0,0,0-.85.49L39.31,26H31a.949.949,0,0,1-.71-.31A.928.928,0,0,1,30,25a1,1,0,0,1,1-1h6a1,1,0,0,0,0-2H27a.949.949,0,0,1-.71-.31A.928.928,0,0,1,26,21a1,1,0,0,1,1-1H37a1,1,0,0,0,0-2H25a.949.949,0,0,1-.71-.31.93.93,0,0,1-.28-.78,1.074,1.074,0,0,1,1.1-.91H37a1,1,0,0,0,0-2H27a.949.949,0,0,1-.71-.31.93.93,0,0,1-.28-.78,1.074,1.074,0,0,1,1.1-.91H40.09A6.007,6.007,0,0,0,46,17a1,1,0,0,0,0-2,4,4,0,0,1-4-4,.43.43,0,0,0-.02-.12.958.958,0,0,0-.4-.69L37.5,7.27a2.015,2.015,0,0,1-.32-2.98L47.5,11.16a4.983,4.983,0,0,0,2.77.84H52Zm8,2H54V10h6Z"/><path d="M57,24a1,1,0,0,0,1-1V21a1,1,0,0,0-2,0v2A1,1,0,0,0,57,24Z"/><path d="M42,28v7a1,1,0,0,0,2,0V28a1,1,0,0,0-2,0Z"/><path d="M43,37a1,1,0,0,0-1,1v1a1,1,0,0,0,2,0V38A1,1,0,0,0,43,37Z"/></g></svg>
