<?xml version="1.0"?>
<svg xmlns="http://www.w3.org/2000/svg" viewBox="0 0 64 64" width="512" height="512"><g id="ambulance-covid19-coronavirus-mobilephone-hospital"><path d="M61.13,40.89a3.063,3.063,0,0,0-1.34-.79l-2.77-9.99a.784.784,0,0,0-.05-.14A5.026,5.026,0,0,0,52.4,27H52V26a3,3,0,0,0-6,0v1H28V5a3.009,3.009,0,0,0-3-3H11A3.009,3.009,0,0,0,8,5V27H5a3.009,3.009,0,0,0-3,3V54a3.009,3.009,0,0,0,3,3h5.09a5.993,5.993,0,0,0,11.82,0H44.09a5.993,5.993,0,0,0,11.82,0H59a3.009,3.009,0,0,0,3-3V43A2.954,2.954,0,0,0,61.13,40.89ZM57.69,40H46a1,1,0,0,1-1-1V33a1,1,0,0,1,1-1h9.47ZM48,26a1,1,0,0,1,2,0v1H48ZM10,5a1,1,0,0,1,1-1H25a1,1,0,0,1,1,1V8H10Zm0,5H26V26H10Zm0,18H26v3a1,1,0,0,1-1,1H11a1,1,0,0,1-1-1Zm6,32a4,4,0,1,1,4-4A4,4,0,0,1,16,60Zm34,0a4,4,0,1,1,4-4A4,4,0,0,1,50,60ZM60,48H59a1,1,0,0,1,0-2h1Zm0-4H59a3,3,0,0,0,0,6h1v2H57a1,1,0,0,0,0,2h3a1,1,0,0,1-1,1H55.91a5.993,5.993,0,0,0-11.82,0H21.91a5.993,5.993,0,0,0-11.82,0H5a1,1,0,0,1-1-1H9a1,1,0,0,0,0-2H4V30a1,1,0,0,1,1-1H8v2a3.009,3.009,0,0,0,3,3H25a3.009,3.009,0,0,0,3-3V29H52.4a3.021,3.021,0,0,1,2.23,1H46a3.009,3.009,0,0,0-3,3v6a3.009,3.009,0,0,0,3,3H59a.949.949,0,0,1,.71.31A.928.928,0,0,1,60,43Z"/><path d="M49,43H47a1,1,0,0,0,0,2h2a1,1,0,0,0,0-2Z"/><path d="M23,15H21V13a1,1,0,0,0-1-1H16a1,1,0,0,0-1,1v2H13a1,1,0,0,0-1,1v4a1,1,0,0,0,1,1h2v2a1,1,0,0,0,1,1h4a1,1,0,0,0,1-1V21h2a1,1,0,0,0,1-1V16A1,1,0,0,0,23,15Zm-1,4H20a1,1,0,0,0-1,1v2H17V20a1,1,0,0,0-1-1H14V17h2a1,1,0,0,0,1-1V14h2v2a1,1,0,0,0,1,1h2Z"/><path d="M48,21a1,1,0,0,0,2,0V19a1,1,0,0,0-2,0Z"/><path d="M42.636,20.636a1,1,0,0,0,0,1.414l1.414,1.414a1,1,0,0,0,1.414-1.414L44.05,20.636A1,1,0,0,0,42.636,20.636Z"/><path d="M53.243,23.757a1,1,0,0,0,.707-.293l1.414-1.414a1,1,0,0,0-1.414-1.414L52.536,22.05a1,1,0,0,0,.707,1.707Z"/><path d="M17,7h2a1,1,0,0,0,0-2H17a1,1,0,0,0,0,2Z"/><path d="M17,31h2a1,1,0,0,0,0-2H17a1,1,0,0,0,0,2Z"/><path d="M26,44V38a1,1,0,0,0-1-1H18a1,1,0,0,0-1,1v6a1,1,0,0,0,1,1h7A1,1,0,0,0,26,44Zm-2-1H19V39h5Z"/><path d="M14,37H7a1,1,0,0,0-1,1v6a1,1,0,0,0,1,1h7a1,1,0,0,0,1-1V38A1,1,0,0,0,14,37Zm-1,6H8V39h5Z"/><path d="M29,45h7a1,1,0,0,0,1-1V38a1,1,0,0,0-1-1H29a1,1,0,0,0-1,1v6A1,1,0,0,0,29,45Zm1-6h5v4H30Z"/><path d="M40,50a1,1,0,0,0,1-1V32a1,1,0,0,0-2,0V49A1,1,0,0,0,40,50Z"/><circle cx="50" cy="56" r="2"/><circle cx="16" cy="56" r="2"/><path d="M42,52H24a1,1,0,0,0,0,2H42a1,1,0,0,0,0-2Z"/><path d="M39,2a9.014,9.014,0,0,0-9,9,8.708,8.708,0,0,0,.43,2.73L29.1,16.57a.982.982,0,0,0,.04.94,1.018,1.018,0,0,0,.8.49l3.7.23A9,9,0,1,0,39,2Zm0,16a6.964,6.964,0,0,1-4.37-1.53.953.953,0,0,0-.56-.22l-2.54-.16.88-1.87a.965.965,0,0,0,.03-.78A7,7,0,1,1,39,18Z"/><path d="M35,12h1.184a2.746,2.746,0,0,0,.117.285l-.837.837a1,1,0,1,0,1.414,1.414l.837-.837a2.746,2.746,0,0,0,.285.117V15a1,1,0,0,0,2,0V13.816a2.746,2.746,0,0,0,.285-.117l.837.837a1,1,0,1,0,1.414-1.414l-.837-.837A2.746,2.746,0,0,0,41.816,12H43a1,1,0,0,0,0-2H41.816a2.746,2.746,0,0,0-.117-.285l.837-.837a1,1,0,1,0-1.414-1.414l-.837.837A2.746,2.746,0,0,0,40,8.184V7a1,1,0,0,0-2,0V8.184a2.746,2.746,0,0,0-.285.117l-.837-.837a1,1,0,1,0-1.414,1.414l.837.837a2.746,2.746,0,0,0-.117.285H35a1,1,0,0,0,0,2Zm5-1a1,1,0,1,1-1-1A1,1,0,0,1,40,11Z"/></g></svg>
