<?xml version="1.0"?>
<svg xmlns="http://www.w3.org/2000/svg" viewBox="0 0 64 64" width="512" height="512"><g id="bacteria-coronavirus-virus-covid19-cell"><path d="M40,18H18a9,9,0,0,0,0,18H40a9,9,0,0,0,0-18Zm0,16H18a7,7,0,0,1,0-14H40a7,7,0,0,1,0,14Z"/><path d="M52.952,26.048a12.889,12.889,0,0,0-1.244-4.661.532.532,0,0,0,.05-.021l1.732-1a1,1,0,0,0-1-1.732l-1.732,1c-.014.008-.021.022-.035.031a13.083,13.083,0,0,0-3.385-3.386c.008-.014.02-.023.028-.037l1-1.732a1,1,0,0,0-1.732-1l-1,1.732c-.01.016-.009.035-.018.052A12.859,12.859,0,0,0,40.99,14.05c0-.017.01-.032.01-.05V12a1,1,0,0,0-2,0v2H34V12a1,1,0,0,0-2,0v2H26V12a1,1,0,0,0-2,0v2H19V12a1,1,0,0,0-2,0v2c0,.018.009.033.01.05a12.859,12.859,0,0,0-4.626,1.244c-.009-.017-.008-.036-.018-.052l-1-1.732a1,1,0,1,0-1.732,1l1,1.732c.008.014.02.023.028.037a13.083,13.083,0,0,0-3.385,3.386c-.014-.009-.021-.023-.035-.031l-1.732-1a1,1,0,0,0-1,1.732l1.732,1a.532.532,0,0,0,.05.021A12.888,12.888,0,0,0,5.05,26.01c-.017,0-.032-.01-.05-.01H3a1,1,0,0,0,0,2H5c.018,0,.033-.009.05-.01a12.88,12.88,0,0,0,1.244,4.626c-.017.009-.036.008-.052.018l-1.732,1a1,1,0,1,0,1,1.732l1.732-1c.014-.008.021-.022.035-.031a13.087,13.087,0,0,0,3.388,3.388c-.009.014-.023.021-.031.035l-1,1.732a1,1,0,1,0,1.732,1l1-1.732c.01-.016.009-.035.018-.052A12.859,12.859,0,0,0,17.01,39.95c0,.017-.01.032-.01.05v2a1,1,0,0,0,2,0V40h5v2a1,1,0,0,0,2,0V40h6v2a1,1,0,0,0,2,0V40h5v2a1,1,0,0,0,2,0V40c0-.018-.009-.033-.01-.05a12.859,12.859,0,0,0,4.626-1.244c.009.017.008.036.018.052l1,1.732a1,1,0,0,0,1.732-1l-1-1.732c-.008-.014-.022-.021-.031-.035a13.087,13.087,0,0,0,3.388-3.388c.014.009.021.023.035.031l1.732,1a1,1,0,0,0,1-1.732l-1.732-1c-.016-.01-.035-.009-.052-.018a12.866,12.866,0,0,0,1.24-4.555A8,8,0,0,1,52,44H40a9,9,0,0,0,0,18h6a1,1,0,0,0,0-2H40a7,7,0,0,1,0-14H52a10,10,0,0,0,.952-19.952ZM40,38H18a11,11,0,0,1,0-22H40a11,11,0,0,1,0,22Z"/><path d="M44,26H41.816a2.982,2.982,0,0,0-5.632,0H31.816a2.982,2.982,0,0,0-5.632,0H21.816a2.982,2.982,0,0,0-5.632,0H14a1,1,0,0,0,0,2h2.184a2.982,2.982,0,0,0,5.632,0h4.368a2.982,2.982,0,0,0,5.632,0h4.368a2.982,2.982,0,0,0,5.632,0H44a1,1,0,0,0,0-2ZM19,28a1,1,0,1,1,1-1A1,1,0,0,1,19,28Zm10,0a1,1,0,1,1,1-1A1,1,0,0,1,29,28Zm10,0a1,1,0,1,1,1-1A1,1,0,0,1,39,28Z"/></g></svg>
