<?xml version="1.0"?>
<svg xmlns="http://www.w3.org/2000/svg" viewBox="0 0 64 64" width="512" height="512"><g id="cough-coronavirus-covid19-breath-people"><path d="M38,27a1,1,0,0,1-.556-1.832l1.567-1.044L34.553,21.9a1,1,0,0,1,.894-1.79l6,3a1,1,0,0,1,.108,1.727l-3,2A1,1,0,0,1,38,27Z"/><path d="M50.44,36.32C47.92,29.35,46.25,24.66,46,23.86A22.005,22.005,0,0,0,22.84,2.03,22.006,22.006,0,0,0,9.17,40.26a8.965,8.965,0,0,1,2.82,8.04L10.01,60.84a1.028,1.028,0,0,0,.23.81A1.011,1.011,0,0,0,11,62H33a1.007,1.007,0,0,0,.98-.78L35.8,53H42a3.009,3.009,0,0,0,3-3V47a1.014,1.014,0,0,0-.68-.95L38.16,44l6.16-2.05A1.014,1.014,0,0,0,45,41V39h3.56a2.006,2.006,0,0,0,1.88-2.68ZM44,37a1,1,0,0,0-1,1v2.28l-8.32,2.77a1,1,0,0,0,0,1.9L43,47.72V50a1,1,0,0,1-1,1H28.66a2.956,2.956,0,0,1-2.12-.88l-1.83-1.83a1,1,0,0,0-1.42,1.42l1.83,1.83A4.994,4.994,0,0,0,28.66,53h5.09L32.2,60H12.17l1.8-11.39a10.946,10.946,0,0,0-3.45-9.83A20,20,0,0,1,22.94,4.03,20,20,0,0,1,44,24.04c.01.22.01.37,4.56,12.96Z"/><path d="M57.763,48.812a.974.974,0,0,1-.26-.035l-6.762-1.811a1,1,0,1,1,.518-1.932l6.762,1.812a1,1,0,0,1-.258,1.966Z"/><path d="M61.626,49.848a1.016,1.016,0,0,1-.26-.035l-.966-.259a1,1,0,1,1,.518-1.931l.966.258a1,1,0,0,1-.258,1.967Z"/><path d="M51,43a1,1,0,0,1-.5-1.866l6.062-3.5a1,1,0,1,1,1,1.732l-6.062,3.5A.992.992,0,0,1,51,43Z"/><path d="M59.661,38a1,1,0,0,1-.5-1.866l.866-.5a1,1,0,1,1,1,1.732l-.866.5A.992.992,0,0,1,59.661,38Z"/><path d="M59.661,44a1,1,0,0,1-.5-1.866l.866-.5a1,1,0,1,1,1,1.732l-.866.5A.992.992,0,0,1,59.661,44Z"/><path d="M57.062,55.5a1,1,0,0,1-.5-.134l-6.062-3.5a1,1,0,1,1,1-1.732l6.062,3.5a1,1,0,0,1-.5,1.866Z"/><path d="M60.525,57.5a1,1,0,0,1-.5-.134l-.866-.5a1,1,0,1,1,1-1.732l.866.5a1,1,0,0,1-.5,1.866Z"/><path d="M52,58a1,1,0,0,1-.707-.293l-1-1a1,1,0,0,1,1.414-1.414l1,1A1,1,0,0,1,52,58Z"/><path d="M56,62a1,1,0,0,1-.707-.293l-1-1a1,1,0,0,1,1.414-1.414l1,1A1,1,0,0,1,56,62Z"/></g></svg>
