<?xml version="1.0"?>
<svg xmlns="http://www.w3.org/2000/svg" viewBox="0 0 64 64" width="512" height="512"><g id="distance-people-virus-protection-covid19"><path d="M51,36a1,1,0,0,0-1,.917l-2,24A1,1,0,1,0,50,61.083l1-12.041,1,12.041A1,1,0,0,0,53,62c.027,0,.056,0,.084,0A1,1,0,0,0,54,60.917l-2-24A1,1,0,0,0,51,36Z"/><path d="M62,22V34a2.98,2.98,0,0,1-4,2.82V61a1,1,0,0,1-2,0V22a1,1,0,0,1,2,0V34a1,1,0,0,0,2,0V22a5,5,0,0,0-5-5,3.009,3.009,0,0,1-3-3v-.12h-.02a1,1,0,0,1-.24-1.97,3.048,3.048,0,0,0,.75-.31c.01,0,.01,0,.01-.01A3.011,3.011,0,0,0,54,9V7a3.013,3.013,0,0,0-.88-2.13A3.074,3.074,0,0,0,51.14,4a2.845,2.845,0,0,0-2.1.82A3.338,3.338,0,0,0,48,7.23V9a2.994,2.994,0,0,0,1.46,2.58,1.012,1.012,0,0,1,.54.88V14a3.009,3.009,0,0,1-3,3,5,5,0,0,0-5,5V34a1,1,0,0,0,2,0V22a1,1,0,0,1,2,0V61a1,1,0,0,1-2,0V36.82A2.98,2.98,0,0,1,40,34V22a7.008,7.008,0,0,1,7-7,1,1,0,0,0,1-1V13a4.954,4.954,0,0,1-2-4V7.23a5.343,5.343,0,0,1,1.66-3.86,4.79,4.79,0,0,1,3.58-1.36A4.994,4.994,0,0,1,56,7V9a4.992,4.992,0,0,1-2,3.99V14a1,1,0,0,0,1,1A7.008,7.008,0,0,1,62,22Z"/><path d="M13,36a1,1,0,0,0-1,.917l-2,24A1,1,0,1,0,12,61.083l1-12.041,1,12.041A1,1,0,0,0,15,62c.027,0,.056,0,.084,0A1,1,0,0,0,16,60.917l-2-24A1,1,0,0,0,13,36Z"/><path d="M24,22V34a2.98,2.98,0,0,1-4,2.82V61a1,1,0,0,1-2,0V22a1,1,0,0,1,2,0V34a1,1,0,0,0,2,0V22a5,5,0,0,0-5-5,3.009,3.009,0,0,1-3-3V12.46a.987.987,0,0,1,.59-.91A3,3,0,0,0,16,9V7.23a3.338,3.338,0,0,0-1.04-2.41A2.845,2.845,0,0,0,12.86,4a3.082,3.082,0,0,0-1.99.88A3,3,0,0,0,10,7V9a3.011,3.011,0,0,0,1.5,2.59c0,.01,0,.01.01.01a3.048,3.048,0,0,0,.75.31,1,1,0,0,1-.24,1.97H12V14a3.009,3.009,0,0,1-3,3,5,5,0,0,0-5,5V34a1,1,0,0,0,2,0V22a1,1,0,0,1,2,0V61a1,1,0,0,1-2,0V36.82A2.98,2.98,0,0,1,2,34V22a7.008,7.008,0,0,1,7-7,1,1,0,0,0,1-1V12.99A4.992,4.992,0,0,1,8,9V7a4.994,4.994,0,0,1,4.76-4.99,4.79,4.79,0,0,1,3.58,1.36A5.343,5.343,0,0,1,18,7.23V9a4.954,4.954,0,0,1-2,4v1a1,1,0,0,0,1,1A7.008,7.008,0,0,1,24,22Z"/><path d="M32,18a8,8,0,1,0-8-8A8.009,8.009,0,0,0,32,18ZM32,4a6,6,0,1,1-6,6A6.006,6.006,0,0,1,32,4Z"/><path d="M30.293,12.707a1,1,0,0,0,1.414,0l4.242-4.243A1,1,0,1,0,34.535,7.05L31,10.586,29.586,9.172a1,1,0,1,0-1.414,1.414Z"/><path d="M39.707,40.293a1,1,0,0,0-1.414,1.414l.293.293H25.414l.293-.293a1,1,0,0,0-1.414-1.414l-2,2a1,1,0,0,0,0,1.414l2,2a1,1,0,0,0,1.414-1.414L25.414,44H38.586l-.293.293a1,1,0,1,0,1.414,1.414l2-2a1,1,0,0,0,0-1.414Z"/></g></svg>
