<?xml version="1.0"?>
<svg xmlns="http://www.w3.org/2000/svg" viewBox="0 0 64 64" width="512" height="512"><g id="doctor-covid19-coronavirus-hospital-laptop"><path d="M12,16h2v2a1,1,0,0,0,1,1h4a1,1,0,0,0,1-1V16h2a1,1,0,0,0,1-1V11a1,1,0,0,0-1-1H20V8a1,1,0,0,0-1-1H15a1,1,0,0,0-1,1v2H12a1,1,0,0,0-1,1v4A1,1,0,0,0,12,16Zm1-4h2a1,1,0,0,0,1-1V9h2v2a1,1,0,0,0,1,1h2v2H19a1,1,0,0,0-1,1v2H16V15a1,1,0,0,0-1-1H13Z"/><path d="M41,18a1,1,0,0,0,1-1V16a1,1,0,0,0-2,0v1A1,1,0,0,0,41,18Z"/><path d="M47,18a1,1,0,0,0,1-1V16a1,1,0,0,0-2,0v1A1,1,0,0,0,47,18Z"/><path d="M60,44.18V38a9.014,9.014,0,0,0-9-9H48V26.92A8.028,8.028,0,0,0,51.93,21H53a3.009,3.009,0,0,0,3-3V17a2.986,2.986,0,0,0-1-2.22V9a7.008,7.008,0,0,0-7-7H45a4.989,4.989,0,0,0-4.33,2.51A2.994,2.994,0,0,0,39,4H38a5,5,0,0,0-5,5v5.78A2.986,2.986,0,0,0,32,17v1a3.009,3.009,0,0,0,3,3h1.07A8.028,8.028,0,0,0,40,26.92V29H37a8.969,8.969,0,0,0-6.02,2.32l-1-4.54A1.015,1.015,0,0,0,29,26H3a1.022,1.022,0,0,0-.78.37,1.037,1.037,0,0,0-.2.85L5.75,44H5a3,3,0,0,0,0,6H6V61a1,1,0,0,0,2,0V50H56V61a1,1,0,0,0,2,0V50h1a3,3,0,0,0,1-5.82ZM49.36,36.93a1,1,0,0,0,.63-.77L50.85,31H51a7.008,7.008,0,0,1,7,7v6H54V39a1,1,0,0,0-2,0v5H47.97A4.951,4.951,0,0,0,49,41a1,1,0,0,0-1-1h-.41l-.34-4.12,1.13.9A1.02,1.02,0,0,0,49,37,.922.922,0,0,0,49.36,36.93ZM48.82,31l-.53,3.15-2.6-2.08L47.3,31ZM44,30.8l-2-1.34V27.74a7.822,7.822,0,0,0,4,0v1.72Zm1.19,4.49L44,35.88l-1.2-.6.1-1.12,1.1-.88,1.1.88Zm-2.56,2.14.92.46a.975.975,0,0,0,.9,0l.92-.46L45.58,40H42.42ZM46.83,42a3.117,3.117,0,0,1-.7,1.12A3.03,3.03,0,0,1,44,44H33.8l-.44-2ZM54,17v1a1,1,0,0,1-1,1H52V16h1A1,1,0,0,1,54,17ZM36,19H35a1,1,0,0,1-1-1V17a1,1,0,0,1,1-1h1Zm0-6v1H35V9a3.009,3.009,0,0,1,3-3h1a1,1,0,0,1,1,1,1,1,0,0,0,2,0,3.009,3.009,0,0,1,3-3h3a5,5,0,0,1,5,5v5H52V13a3.009,3.009,0,0,0-3-3H39A3.009,3.009,0,0,0,36,13Zm2,7V13a1,1,0,0,1,1-1H49a1,1,0,0,1,1,1v7a6,6,0,0,1-12,0Zm2.7,11,1.61,1.07-2.6,2.08L39.18,31ZM37,31h.15l.86,5.16a1,1,0,0,0,.63.77A.922.922,0,0,0,39,37a1.02,1.02,0,0,0,.62-.22l1.13-.9L40.41,40h-7.5l-1.4-6.32A6.976,6.976,0,0,1,37,31ZM4.25,28H28.2l1.25,5.62L31.75,44H7.8ZM59,48H5a1,1,0,0,1,0-2H59a1,1,0,0,1,0,2Z"/><path d="M17,24A11,11,0,1,0,6,13,11.013,11.013,0,0,0,17,24ZM17,4a9,9,0,1,1-9,9A9.011,9.011,0,0,1,17,4Z"/><path d="M17,32a4,4,0,1,0,4,4A4,4,0,0,0,17,32Zm0,6a2,2,0,1,1,2-2A2,2,0,0,1,17,38Z"/><path d="M41.707,20.293A1,1,0,0,0,40.3,21.709a5.246,5.246,0,0,0,7.412,0A1,1,0,0,0,46.291,20.3a3.244,3.244,0,0,1-4.582,0Z"/></g></svg>
