<?xml version="1.0"?>
<svg xmlns="http://www.w3.org/2000/svg" viewBox="0 0 64 64" width="512" height="512"><g id="eye-covid19-coronavirus-hand-touch"><path d="M29,15a4,4,0,1,0-4,4A4,4,0,0,0,29,15Zm-4,2a2,2,0,1,1,2-2A2,2,0,0,1,25,17Z"/><path d="M59.23,38.32l-.01-.01a12.133,12.133,0,0,0-2.41-2.19A11.962,11.962,0,0,0,43,36.27V27a2.954,2.954,0,0,0-.87-2.11A3.087,3.087,0,0,0,39,24.17V23a2.961,2.961,0,0,0-.12-.79,101.307,101.307,0,0,0,8.76-6.44A.992.992,0,0,0,48,15a1.008,1.008,0,0,0-.36-.77C47.05,13.73,33,2,25,2S2.95,13.73,2.36,14.23a1,1,0,0,0,0,1.54C2.95,16.27,17,28,25,28v2.56A3.906,3.906,0,0,0,23,30H22a1,1,0,0,0-1,1V41.34a4.994,4.994,0,0,0,1.46,3.54l.66.66A3,3,0,0,1,24,47.66V61a1,1,0,0,0,1,1H39a1,1,0,0,0,1-1V52.62c.04.05.07.11.11.17a11.781,11.781,0,0,0,2.21,2.43,12,12,0,0,0,16.91-16.9ZM4.58,15C7.85,12.39,18.82,4,25,4s17.15,8.39,20.42,11c-1.44,1.15-4.35,3.4-7.69,5.56a3.08,3.08,0,0,0-2.83-.35,2.872,2.872,0,0,0-.78-1.32,2.781,2.781,0,0,0-.77-.55A9,9,0,1,0,25,24v2C18.82,26,7.85,17.61,4.58,15ZM32,15a7.006,7.006,0,0,1-.74,3.1,3.054,3.054,0,0,0-2.13,2.12,2.956,2.956,0,0,0-3.92,1.77c-.07,0-.14.01-.21.01a7,7,0,1,1,7-7Zm6,31c0,.35.02.7.05,1.05a4.071,4.071,0,0,0-.05.61V60H26V47.66a4.994,4.994,0,0,0-1.46-3.54l-.66-.66A3,3,0,0,1,23,41.34V32a2.006,2.006,0,0,1,2,2v3a1,1,0,0,0,2,0V23.11a1.073,1.073,0,0,1,.92-1.1.91.91,0,0,1,.79.3A.928.928,0,0,1,29,23V33a1,1,0,0,0,2,0V21.11a1.073,1.073,0,0,1,.92-1.1.91.91,0,0,1,.79.3A.928.928,0,0,1,33,21V33a1,1,0,0,0,2,0V23a1,1,0,0,1,1-1,.949.949,0,0,1,.71.31A.928.928,0,0,1,37,23V33a1,1,0,0,0,2,0V27a1,1,0,0,1,1-1,.949.949,0,0,1,.71.31A.928.928,0,0,1,41,27V38.09A11.934,11.934,0,0,0,38,46ZM50,56a10.009,10.009,0,0,1-6.4-2.32,9.759,9.759,0,0,1-1.84-2.02A9.9,9.9,0,0,1,40,46a10,10,0,0,1,15.67-8.24,10.323,10.323,0,0,1,2.02,1.84A10.006,10.006,0,0,1,50,56Z"/><path d="M55.052,39a1,1,0,0,0-.48-.736A8.982,8.982,0,0,0,41,46a9.021,9.021,0,0,0,1.248,4.567,1,1,0,0,0,.735.485.912.912,0,0,0,.127.008,1,1,0,0,0,.707-.292l10.95-10.94A1,1,0,0,0,55.052,39ZM43.408,48.349A6.995,6.995,0,0,1,50,39a6.918,6.918,0,0,1,2.353.413Z"/><path d="M58.728,43.8a9,9,0,0,0-1.616-3.308,1,1,0,0,0-1.5-.1L44.393,51.6a1,1,0,0,0,.092,1.5A8.894,8.894,0,0,0,50,55a9.006,9.006,0,0,0,8.728-11.2ZM50,53a6.889,6.889,0,0,1-3.327-.848l9.485-9.476A6.923,6.923,0,0,1,57,46,7.008,7.008,0,0,1,50,53Z"/><path d="M14.256,27.332C13.712,27.938,11,31.059,11,33a4,4,0,0,0,8,0c0-1.941-2.712-5.062-3.256-5.668A1.031,1.031,0,0,0,14.256,27.332ZM15,35a2,2,0,0,1-2-2c0-.637.939-2.125,2-3.451,1.062,1.332,2,2.831,2,3.451A2,2,0,0,1,15,35Z"/><path d="M11.256,39.332C10.712,39.938,8,43.059,8,45a4,4,0,0,0,8,0c0-1.941-2.712-5.062-3.256-5.668A1.031,1.031,0,0,0,11.256,39.332ZM12,47a2,2,0,0,1-2-2c0-.637.939-2.125,2-3.451,1.062,1.332,2,2.831,2,3.451A2,2,0,0,1,12,47Z"/></g></svg>
