<?xml version="1.0"?>
<svg xmlns="http://www.w3.org/2000/svg" viewBox="0 0 64 64" width="512" height="512"><g id="file-hospital-medical-coronavirus-healthcare"><path d="M54,2H14A5,5,0,0,0,9,7V54H6a1,1,0,0,0-1,1v2a5,5,0,0,0,5,5H46a5,5,0,0,0,5-5V12h7a1,1,0,0,0,1-1V7A5,5,0,0,0,54,2ZM10,60a3.009,3.009,0,0,1-3-3V56H41v1a4.985,4.985,0,0,0,1,3ZM49,7V57a3,3,0,0,1-6,0V55a1,1,0,0,0-1-1H11V7a3.009,3.009,0,0,1,3-3H50.03A4.924,4.924,0,0,0,49,7Zm8,3H51V7a3,3,0,0,1,6,0Z"/><path d="M17,44a1,1,0,0,0,1-1h1.142a3.915,3.915,0,0,0,.425,1.019l-.809.81h0a1,1,0,0,0-1.414,1.415l1.415,1.414a1,1,0,1,0,1.414-1.415l.809-.809A3.915,3.915,0,0,0,22,45.858V47a1,1,0,0,0,0,2h2a1,1,0,0,0,0-2V45.858a3.915,3.915,0,0,0,1.019-.425l.809.809a1,1,0,1,0,1.414,1.415l1.415-1.414a1,1,0,0,0-1.414-1.415h0l-.809-.81A3.915,3.915,0,0,0,26.858,43H28a1,1,0,0,0,2,0V41a1,1,0,0,0-2,0H26.858a3.915,3.915,0,0,0-.425-1.019l.809-.81h0a1,1,0,0,0,1.414-1.415l-1.415-1.414a1,1,0,1,0-1.414,1.415l-.809.809A3.915,3.915,0,0,0,24,38.142V37a1,1,0,0,0,0-2H22a1,1,0,0,0,0,2v1.142a3.915,3.915,0,0,0-1.019.425l-.809-.809a1,1,0,1,0-1.414-1.415l-1.415,1.414a1,1,0,0,0,1.414,1.415h0l.809.81A3.915,3.915,0,0,0,19.142,41H18a1,1,0,0,0-2,0v2A1,1,0,0,0,17,44Zm6-4a2,2,0,1,1-2,2A2,2,0,0,1,23,40Z"/><path d="M46,20H20a1,1,0,0,0,0,2H46a1,1,0,0,0,0-2Z"/><path d="M46,24H20a1,1,0,0,0,0,2H46a1,1,0,0,0,0-2Z"/><path d="M46,28H20a1,1,0,0,0,0,2H46a1,1,0,0,0,0-2Z"/><path d="M14,22h2a1,1,0,0,0,0-2H14a1,1,0,0,0,0,2Z"/><path d="M14,26h2a1,1,0,0,0,0-2H14a1,1,0,0,0,0,2Z"/><path d="M14,30h2a1,1,0,0,0,0-2H14a1,1,0,0,0,0,2Z"/><path d="M34,39h8a1,1,0,0,0,0-2H34a1,1,0,0,0,0,2Z"/><path d="M34,43h8a1,1,0,0,0,0-2H34a1,1,0,0,0,0,2Z"/><path d="M34,47h8a1,1,0,0,0,0-2H34a1,1,0,0,0,0,2Z"/><path d="M25,15h2v2a1,1,0,0,0,1,1h4a1,1,0,0,0,1-1V15h2a1,1,0,0,0,1-1V10a1,1,0,0,0-1-1H33V7a1,1,0,0,0-1-1H28a1,1,0,0,0-1,1V9H25a1,1,0,0,0-1,1v4A1,1,0,0,0,25,15Zm1-4h2a1,1,0,0,0,1-1V8h2v2a1,1,0,0,0,1,1h2v2H32a1,1,0,0,0-1,1v2H29V14a1,1,0,0,0-1-1H26Z"/><path d="M46,32H14a1,1,0,0,0-1,1V51a1,1,0,0,0,1,1H46a1,1,0,0,0,1-1V33A1,1,0,0,0,46,32ZM45,50H15V34H45Z"/></g></svg>
