<svg height="512" viewBox="0 0 64 64" width="512" xmlns="http://www.w3.org/2000/svg"><g id="file-medical-coronavirus-healthcare-hospital"><path d="m43 6h-8a1 1 0 0 0 -1-1h-5.13a4 4 0 0 0 -7.74 0h-5.13a1 1 0 0 0 -1 1h-8a5 5 0 0 0 -5 5v46a5 5 0 0 0 5 5h36a5 5 0 0 0 5-5v-46a5 5 0 0 0 -5-5zm-26 1h5a1 1 0 0 0 1-1 2 2 0 0 1 4 0 1 1 0 0 0 1 1h5v5a1 1 0 0 1 -1 1h-14a1 1 0 0 1 -1-1zm1 8h14a3.009 3.009 0 0 0 3-3h7v36h-6a2.006 2.006 0 0 0 -2 2v6h-26v-44h7a3.009 3.009 0 0 0 3 3zm22.59 35-4.59 4.59v-4.59zm5.41 7a3.009 3.009 0 0 1 -3 3h-36a3.009 3.009 0 0 1 -3-3v-46a3.009 3.009 0 0 1 3-3h8v2h-8a1 1 0 0 0 -1 1v46a1 1 0 0 0 1 1h28a1.033 1.033 0 0 0 .71-.29l8-8a1.033 1.033 0 0 0 .29-.71v-38a1 1 0 0 0 -1-1h-8v-2h8a3.009 3.009 0 0 1 3 3z"/><path d="m20 37v1a1 1 0 0 1 -1 1h-6a1 1 0 0 1 -1-1v-6a1 1 0 0 1 1-1h4.95a1 1 0 1 1 0 2h-3.95v4h4a1 1 0 0 1 2 0z"/><path d="m21.293 30.293-4.293 4.293-1.293-1.293a1 1 0 1 0 -1.414 1.414l2 2a1 1 0 0 0 1.414 0l5-5a1 1 0 0 0 -1.414-1.414z"/><path d="m14 46v-1h3.947a1 1 0 1 0 0-2h-4.947a1 1 0 0 0 -1 1v6a1 1 0 0 0 1 1h6a1 1 0 0 0 1-1v-1a1 1 0 0 0 -2 0h-4z"/><path d="m21.293 42.293-4.293 4.293-1.293-1.293a1 1 0 1 0 -1.414 1.414l2 2a1 1 0 0 0 1.414 0l5-5a1 1 0 0 0 -1.414-1.414z"/><path d="m25 29a6 6 0 1 0 -6-6 6.006 6.006 0 0 0 6 6zm0-10a4 4 0 1 1 -4 4 4 4 0 0 1 4-4z"/><path d="m24 26h2v-2h2v-2h-2v-2h-2v2h-2v2h2z"/><path d="m24 33a1 1 0 0 0 1 1h12a1 1 0 0 0 0-2h-12a1 1 0 0 0 -1 1z"/><path d="m37 44h-12a1 1 0 0 0 0 2h12a1 1 0 0 0 0-2z"/><path d="m31 48h-6a1 1 0 0 0 0 2h6a1 1 0 0 0 0-2z"/><path d="m37 36h-12a1 1 0 0 0 0 2h12a1 1 0 0 0 0-2z"/><path d="m58 10h-2a3.009 3.009 0 0 0 -3 3v3a3.009 3.009 0 0 0 -3 3v10a1 1 0 0 0 2 0v-10a1 1 0 0 1 1-1v35c0 .01.01.02.01.04a1.115 1.115 0 0 0 .05.31l3.01 8a1.007 1.007 0 0 0 .94.65.994.994 0 0 0 .93-.65l3-8a1.127 1.127 0 0 0 .05-.32c0-.01.01-.02.01-.03v-40a3.009 3.009 0 0 0 -3-3zm-1 48.15-1.56-4.15h3.12zm2-6.15h-4v-2h4zm0-4h-4v-2h4zm0-4h-4v-2h4zm0-4h-4v-22h4zm0-24h-4v-3a1 1 0 0 1 1-1h2a1 1 0 0 1 1 1z"/></g></svg>