<?xml version="1.0"?>
<svg xmlns="http://www.w3.org/2000/svg" viewBox="0 0 64 64" width="512" height="512"><g id="healthcare-hospital-medical-coronavirus-blood"><path d="M28.356,39.683a2.754,2.754,0,0,0-.728-.216l.595-1.029a3.017,3.017,0,0,0-1.1-4.1,2.971,2.971,0,0,0-.959-.34l.092-.159a3.013,3.013,0,0,0-1.1-4.1,3,3,0,0,0-4.1,1.1L20.971,31a2.973,2.973,0,0,0-4.873.44L12.82,37.116a3.957,3.957,0,0,0-1.454-1.482l-.866-.5a1,1,0,0,0-1.366.366l-5.5,9.526a11,11,0,0,0,19.053,11l7-12.124a2.924,2.924,0,0,0,.3-2.262A2.963,2.963,0,0,0,28.356,39.683Zm-.4,3.219-7,12.124a9,9,0,0,1-15.588-9l5-8.66A2,2,0,0,1,11.1,40.1l-2.5,4.33a1,1,0,1,0,1.732,1l2.5-4.329h0l5-8.659a1,1,0,0,1,1.366-.367.981.981,0,0,1,.464.623.958.958,0,0,1-.1.743l-4.5,7.8a1,1,0,1,0,1.732,1l6-10.392a1.006,1.006,0,0,1,1.367-.366.975.975,0,0,1,.463.621.958.958,0,0,1-.1.745l-6,10.392a1,1,0,1,0,1.732,1l4.5-7.8a1,1,0,0,1,1.365-.366.978.978,0,0,1,.464.623.952.952,0,0,1-.1.744l-4.5,7.794a1,1,0,0,0,1.733,1L26.167,42a1.08,1.08,0,0,1,1.339-.506.973.973,0,0,1,.546.664A.953.953,0,0,1,27.954,42.9Z"/><path d="M60.366,45.026l-5.5-9.526a1,1,0,0,0-1.366-.366l-.866.5a3.957,3.957,0,0,0-1.454,1.482L47.9,31.438A2.978,2.978,0,0,0,43.028,31l-.09-.156a3,3,0,0,0-4.1-1.1,3.013,3.013,0,0,0-1.1,4.1l.092.16a2.962,2.962,0,0,0-.959.34,3.015,3.015,0,0,0-1.1,4.1l.595,1.03a2.808,2.808,0,0,0-.729.215,3.014,3.014,0,0,0-1.33,4.219l7,12.124a11,11,0,1,0,19.053-11Zm-.833,7.829a9,9,0,0,1-16.487,2.171l-7-12.125a.972.972,0,0,1-.09-.77.959.959,0,0,1,.538-.638,1.083,1.083,0,0,1,1.34.506l2.444,4.233a1,1,0,0,0,1.733-1l-4.5-7.794a.971.971,0,0,1-.091-.771.958.958,0,0,1,.456-.595,1,1,0,0,1,1.366.365l4.5,7.8a1,1,0,0,0,1.732-1l-6-10.393a.971.971,0,0,1-.091-.769.955.955,0,0,1,.457-.6,1,1,0,0,1,1.366.366l6,10.392a1,1,0,0,0,1.732-1l-4.5-7.8a.973.973,0,0,1-.09-.77.954.954,0,0,1,.456-.595,1,1,0,0,1,1.366.366l7.5,12.99a1,1,0,0,0,1.732-1L52.9,40.1h0a2,2,0,0,1,.732-2.732h0l5,8.66A8.942,8.942,0,0,1,59.533,52.855Z"/><path d="M37,16H35V14a1,1,0,0,0-1-1H30a1,1,0,0,0-1,1v2H27a1,1,0,0,0-1,1v4a1,1,0,0,0,1,1h2v2a1,1,0,0,0,1,1h4a1,1,0,0,0,1-1V22h2a1,1,0,0,0,1-1V17A1,1,0,0,0,37,16Zm-1,4H34a1,1,0,0,0-1,1v2H31V21a1,1,0,0,0-1-1H28V18h2a1,1,0,0,0,1-1V15h2v2a1,1,0,0,0,1,1h2Z"/><path d="M43,19c0-5.856-9.857-16.251-10.277-16.69a1.029,1.029,0,0,0-1.446,0C30.857,2.749,21,13.144,21,19a11,11,0,0,0,22,0ZM32,28a9.011,9.011,0,0,1-9-9c0-3.864,5.944-11.181,9-14.533C35.056,7.817,41,15.133,41,19A9.011,9.011,0,0,1,32,28Z"/><path d="M50,26a5.006,5.006,0,0,0,5-5c0-2.448-3.525-6.794-4.232-7.641a1.035,1.035,0,0,0-1.536,0C48.525,14.206,45,18.552,45,21A5.006,5.006,0,0,0,50,26Zm0-10.4c1.431,1.866,3,4.322,3,5.4a3,3,0,0,1-6,0C47,19.927,48.57,17.471,50,15.6Z"/><path d="M18,14a4,4,0,0,0,4-4c0-1.941-2.712-5.062-3.256-5.668a1.031,1.031,0,0,0-1.488,0C16.712,4.938,14,8.059,14,10A4,4,0,0,0,18,14Zm0-7.451C19.062,7.881,20,9.38,20,10a2,2,0,0,1-4,0C16,9.363,16.939,7.875,18,6.549Z"/></g></svg>
