<?xml version="1.0"?>
<svg xmlns="http://www.w3.org/2000/svg" viewBox="0 0 64 64" width="512" height="512"><g id="hospital-covid19-coronavirus-medical-healthcare"><path d="M27,22h2v2a1,1,0,0,0,1,1h4a1,1,0,0,0,1-1V22h2a1,1,0,0,0,1-1V17a1,1,0,0,0-1-1H35V14a1,1,0,0,0-1-1H30a1,1,0,0,0-1,1v2H27a1,1,0,0,0-1,1v4A1,1,0,0,0,27,22Zm1-4h2a1,1,0,0,0,1-1V15h2v2a1,1,0,0,0,1,1h2v2H34a1,1,0,0,0-1,1v2H31V21a1,1,0,0,0-1-1H28Z"/><path d="M61,56H59V28h1a1,1,0,0,0,1-1V23a1,1,0,0,0-1-1H45V18.83A3.089,3.089,0,0,0,46,19a2.934,2.934,0,0,0,1.34-.32,3,3,0,0,0,.46-5.08L32.6,2.2a.99.99,0,0,0-1.2,0L16.2,13.6a3,3,0,0,0,.46,5.08,2.942,2.942,0,0,0,2.34.15V22H4a1,1,0,0,0-1,1v4a1,1,0,0,0,1,1H5V56H3a1,1,0,0,0-1,1v4a1,1,0,0,0,1,1H61a1,1,0,0,0,1-1V57A1,1,0,0,0,61,56ZM59,24v2H45V24Zm-2,4V56H45V28ZM18.6,16.8A1,1,0,0,1,17,16a1.014,1.014,0,0,1,.4-.8L32,4.25,46.6,15.2a1.014,1.014,0,0,1,.4.8,1,1,0,0,1-1.6.8L32.6,7.2a1,1,0,0,0-1.2,0ZM38,44H26a1,1,0,0,0-1,1V56H21V17.5L32,9.25,43,17.5V56H39V45A1,1,0,0,0,38,44Zm-1,2V56H33V46Zm-6,0V56H27V46ZM5,24H19v2H5Zm14,4V56H7V28ZM60,60H4V58H60Z"/><path d="M30,36H26a1,1,0,0,0-1,1v4a1,1,0,0,0,1,1h4a1,1,0,0,0,1-1V37A1,1,0,0,0,30,36Zm-1,4H27V38h2Z"/><path d="M38,36H34a1,1,0,0,0-1,1v4a1,1,0,0,0,1,1h4a1,1,0,0,0,1-1V37A1,1,0,0,0,38,36Zm-1,4H35V38h2Z"/><path d="M30,28H26a1,1,0,0,0-1,1v4a1,1,0,0,0,1,1h4a1,1,0,0,0,1-1V29A1,1,0,0,0,30,28Zm-1,4H27V30h2Z"/><path d="M38,28H34a1,1,0,0,0-1,1v4a1,1,0,0,0,1,1h4a1,1,0,0,0,1-1V29A1,1,0,0,0,38,28Zm-1,4H35V30h2Z"/><path d="M49,44h4a1,1,0,0,0,1-1V39a1,1,0,0,0-1-1H49a1,1,0,0,0-1,1v4A1,1,0,0,0,49,44Zm1-4h2v2H50Z"/><path d="M49,52h4a1,1,0,0,0,1-1V47a1,1,0,0,0-1-1H49a1,1,0,0,0-1,1v4A1,1,0,0,0,49,52Zm1-4h2v2H50Z"/><path d="M49,36h4a1,1,0,0,0,1-1V31a1,1,0,0,0-1-1H49a1,1,0,0,0-1,1v4A1,1,0,0,0,49,36Zm1-4h2v2H50Z"/><path d="M15,38H11a1,1,0,0,0-1,1v4a1,1,0,0,0,1,1h4a1,1,0,0,0,1-1V39A1,1,0,0,0,15,38Zm-1,4H12V40h2Z"/><path d="M15,46H11a1,1,0,0,0-1,1v4a1,1,0,0,0,1,1h4a1,1,0,0,0,1-1V47A1,1,0,0,0,15,46Zm-1,4H12V48h2Z"/><path d="M15,30H11a1,1,0,0,0-1,1v4a1,1,0,0,0,1,1h4a1,1,0,0,0,1-1V31A1,1,0,0,0,15,30Zm-1,4H12V32h2Z"/></g></svg>
