<?xml version="1.0"?>
<svg xmlns="http://www.w3.org/2000/svg" viewBox="0 0 64 64" width="512" height="512"><g id="Infect_-lungs-covid19-virus-coronavirus" data-name="Infect -lungs-covid19-virus-coronavirus"><path d="M55.122,35.464l-.837.837A2.746,2.746,0,0,0,54,36.184V35a1,1,0,0,0-2,0v1.184a2.746,2.746,0,0,0-.285.117l-.837-.837a1,1,0,0,0-1.414,1.414l.837.837a2.746,2.746,0,0,0-.117.285H49a1,1,0,0,0,0,2h1.184a2.746,2.746,0,0,0,.117.285l-.837.837a1,1,0,1,0,1.414,1.414l.837-.837a2.746,2.746,0,0,0,.285.117V43a1,1,0,0,0,2,0V41.816a2.746,2.746,0,0,0,.285-.117l.837.837a1,1,0,0,0,1.414-1.414l-.837-.837A2.746,2.746,0,0,0,55.816,40H57a1,1,0,0,0,0-2H55.816a2.746,2.746,0,0,0-.117-.285l.837-.837a1,1,0,0,0-1.414-1.414ZM52,39a1,1,0,1,1,1,1A1,1,0,0,1,52,39Z"/><path d="M15,26h1.184a2.746,2.746,0,0,0,.117.285l-.837.837a1,1,0,1,0,1.414,1.414l.837-.837a2.746,2.746,0,0,0,.285.117V29a1,1,0,0,0,2,0V27.816a2.746,2.746,0,0,0,.285-.117l.837.837a1,1,0,0,0,1.414-1.414l-.837-.837A2.746,2.746,0,0,0,21.816,26H23a1,1,0,0,0,0-2H21.816a2.746,2.746,0,0,0-.117-.285l.837-.837a1,1,0,0,0-1.414-1.414l-.837.837A2.746,2.746,0,0,0,20,22.184V21a1,1,0,0,0-2,0v1.184a2.746,2.746,0,0,0-.285.117l-.837-.837a1,1,0,1,0-1.414,1.414l.837.837a2.746,2.746,0,0,0-.117.285H15a1,1,0,0,0,0,2Zm5-1a1,1,0,1,1-1-1A1,1,0,0,1,20,25Z"/><path d="M50.536,28.122l-.837-.837A2.746,2.746,0,0,0,49.816,27H51a1,1,0,0,0,0-2H49.816a2.746,2.746,0,0,0-.117-.285l.837-.837a1,1,0,0,0-1.414-1.414l-.837.837A2.746,2.746,0,0,0,48,23.184V22a1,1,0,0,0-2,0v1.184a2.746,2.746,0,0,0-.285.117l-.837-.837a1,1,0,0,0-1.414,1.414l.837.837a2.746,2.746,0,0,0-.117.285H43a1,1,0,0,0,0,2h1.184a2.746,2.746,0,0,0,.117.285l-.837.837a1,1,0,1,0,1.414,1.414l.837-.837a2.746,2.746,0,0,0,.285.117V30a1,1,0,0,0,2,0V28.816a2.746,2.746,0,0,0,.285-.117l.837.837a1,1,0,0,0,1.414-1.414ZM46,26a1,1,0,1,1,1,1A1,1,0,0,1,46,26Z"/><path d="M18.285,47.3A2.746,2.746,0,0,0,18,47.184V46a1,1,0,0,0-2,0v1.184a2.746,2.746,0,0,0-.285.117l-.837-.837a1,1,0,1,0-1.414,1.414l.837.837a2.746,2.746,0,0,0-.117.285H13a1,1,0,0,0,0,2h1.184a2.746,2.746,0,0,0,.117.285l-.837.837a1,1,0,1,0,1.414,1.414l.837-.837a2.746,2.746,0,0,0,.285.117V54a1,1,0,0,0,2,0V52.816a2.746,2.746,0,0,0,.285-.117l.837.837a1,1,0,0,0,1.414-1.414l-.837-.837A2.746,2.746,0,0,0,19.816,51H21a1,1,0,0,0,0-2H19.816a2.746,2.746,0,0,0-.117-.285l.837-.837a1,1,0,0,0-1.414-1.414ZM16,50a1,1,0,1,1,1,1A1,1,0,0,1,16,50Z"/><path d="M56,50H54.86a4.166,4.166,0,0,0-.43-1.02l.81-.81a1,1,0,0,0-1.41-1.41l-.81.81A4.166,4.166,0,0,0,52,47.14V46a1,1,0,0,0-2,0v1.14a4.166,4.166,0,0,0-1.02.43l-.81-.81a1,1,0,0,0-1.41,1.41l.81.81A4.166,4.166,0,0,0,47.14,50H46a1,1,0,0,0,0,2h1.14a4.166,4.166,0,0,0,.43,1.02l-.81.81a1,1,0,0,0,0,1.41.978.978,0,0,0,1.41,0l.81-.81a4.166,4.166,0,0,0,1.02.43V56a1,1,0,0,0,2,0V54.86a4.166,4.166,0,0,0,1.02-.43l.81.81a.978.978,0,0,0,1.41,0,1,1,0,0,0,0-1.41l-.81-.81A4.166,4.166,0,0,0,54.86,52H56a1,1,0,0,0,0-2Zm-5,3a2,2,0,1,1,2-2A2.006,2.006,0,0,1,51,53Z"/><path d="M7.142,41a3.915,3.915,0,0,0,.425,1.019l-.81.81a1,1,0,1,0,1.414,1.414l.81-.81A3.915,3.915,0,0,0,10,43.858V45a1,1,0,0,0,2,0V43.858a3.915,3.915,0,0,0,1.019-.425l.81.81a1,1,0,1,0,1.414-1.414l-.81-.81A3.915,3.915,0,0,0,14.858,41H16a1,1,0,0,0,0-2H14.858a3.915,3.915,0,0,0-.425-1.019l.81-.81a1,1,0,1,0-1.414-1.414l-.81.81A3.915,3.915,0,0,0,12,36.142V35a1,1,0,0,0-2,0v1.142a3.915,3.915,0,0,0-1.019.425l-.81-.81a1,1,0,0,0-1.414,1.414l.81.81A3.915,3.915,0,0,0,7.142,39H6a1,1,0,0,0,0,2ZM11,38a2,2,0,1,1-2,2A2,2,0,0,1,11,38Z"/><path d="M42,46V45a1,1,0,0,0-2,0v1a1,1,0,0,0,2,0Z"/><path d="M42.293,48.293l-1,1a1,1,0,1,0,1.414,1.414l1-1a1,1,0,0,0-1.414-1.414Z"/><path d="M46,45h1a1,1,0,0,0,0-2H46a1,1,0,0,0,0,2Z"/><path d="M57,45v1a1,1,0,0,0,2,0V45a1,1,0,0,0-2,0Z"/><path d="M55,33a1,1,0,0,0,0-2H54a1,1,0,0,0,0,2Z"/><path d="M53.293,26.293a1,1,0,0,0,0,1.414l1,1a1,1,0,0,0,1.414-1.414l-1-1A1,1,0,0,0,53.293,26.293Z"/><path d="M41.707,20.293a1,1,0,0,0-1.414,0l-1,1a1,1,0,1,0,1.414,1.414l1-1A1,1,0,0,0,41.707,20.293Z"/><path d="M40,25a1,1,0,0,0-1,1v1a1,1,0,0,0,2,0V26A1,1,0,0,0,40,25Z"/><path d="M10,27h1a1,1,0,0,0,0-2H10a1,1,0,0,0,0,2Z"/><path d="M11.293,31.707a1,1,0,0,0,1.414,0l1-1a1,1,0,0,0-1.414-1.414l-1,1A1,1,0,0,0,11.293,31.707Z"/><path d="M8,32a1,1,0,0,0,1-1V30a1,1,0,0,0-2,0v1A1,1,0,0,0,8,32Z"/><path d="M23,47a1,1,0,0,0,1-1V45a1,1,0,0,0-2,0v1A1,1,0,0,0,23,47Z"/><path d="M8,49a1,1,0,0,0,.707-1.707l-1-1a1,1,0,0,0-1.414,1.414l1,1A1,1,0,0,0,8,49Z"/><path d="M11.293,54.293l-1,1a1,1,0,1,0,1.414,1.414l1-1a1,1,0,0,0-1.414-1.414Z"/><path d="M9,52H8a1,1,0,0,0,0,2H9a1,1,0,0,0,0-2Z"/><path d="M49.01,17.95,42.57,15.8A5,5,0,0,0,36,20.55V28l-.5-.29a1,1,0,0,1-.5-.86V5a1,1,0,0,1,1-1,1,1,0,0,0,0-2,3.009,3.009,0,0,0-3,3V6H31V4.99a2.973,2.973,0,0,0-.88-2.12,3.193,3.193,0,0,0-2.13-.88,1.012,1.012,0,0,0-1,1.01,1,1,0,0,0,1,.99H28a1.007,1.007,0,0,1,1,1V26.85a1,1,0,0,1-.5.86L28,28V20.55a5.006,5.006,0,0,0-6.58-4.75l-6.43,2.15A18.97,18.97,0,0,0,2,35.97V54.68a7.008,7.008,0,0,0,6.98,7,7.237,7.237,0,0,0,2.24-.36l7.89-2.63A13,13,0,0,0,28,46.35V34.92l3.5-2.02a1.044,1.044,0,0,1,1,0L36,34.92V46.35a13,13,0,0,0,8.89,12.34l7.9,2.63a7.128,7.128,0,0,0,2.23.36,7.008,7.008,0,0,0,6.98-7V35.97A18.97,18.97,0,0,0,49.01,17.95ZM31,8h2v2H31Zm0,4h2v2H31Zm0,4h2v2H31ZM60,54.68a5,5,0,0,1-6.58,4.74l-7.89-2.63A11,11,0,0,1,38,46.35V36.08l3.23,1.86a2.56,2.56,0,0,1,.9,3.56A1.01,1.01,0,0,0,43,43a1.015,1.015,0,0,0,.86-.49,4.554,4.554,0,0,0-1.63-6.3L33.5,31.17a3.029,3.029,0,0,0-3,0l-8.73,5.04a4.554,4.554,0,0,0-1.63,6.3A1.015,1.015,0,0,0,21,43a1.01,1.01,0,0,0,.87-1.5,2.56,2.56,0,0,1,.9-3.56L26,36.08V46.35a11,11,0,0,1-7.53,10.44l-7.89,2.63A5,5,0,0,1,4,54.68V35.97A16.975,16.975,0,0,1,15.63,19.85l6.43-2.15A3,3,0,0,1,26,20.55v8.6l-6.02,3.48a3.017,3.017,0,0,1-4.07-1.05l-.05-.09a1,1,0,1,0-1.72,1.02l.06.1a5.009,5.009,0,0,0,4.3,2.41,4.932,4.932,0,0,0,2.48-.66l8.52-4.92A2.99,2.99,0,0,0,31,26.85V20h2v6.85a2.99,2.99,0,0,0,1.5,2.59l8.52,4.92a4.932,4.932,0,0,0,2.48.66,5,5,0,0,0,4.3-2.42l.06-.09a1,1,0,0,0-1.72-1.02l-.05.09a3.02,3.02,0,0,1-4.07,1.05L38,29.15v-8.6a3,3,0,0,1,3.94-2.85l6.43,2.15A16.975,16.975,0,0,1,60,35.97Z"/></g></svg>
