<?xml version="1.0"?>
<svg xmlns="http://www.w3.org/2000/svg" viewBox="0 0 64 64" width="512" height="512"><g id="laptop-file-medical-coronavirus-healthcare"><path d="M61,52H58.97A4.924,4.924,0,0,0,60,49V19a5,5,0,0,0-5-5H50V12h7a1,1,0,0,0,1-1V7a5,5,0,0,0-5-5H21a5,5,0,0,0-5,5v7H9a5,5,0,0,0-5,5V49a4.924,4.924,0,0,0,1.03,3H3a1,1,0,0,0-1,1v4a5,5,0,0,0,5,5H57a5,5,0,0,0,5-5V53A1,1,0,0,0,61,52ZM50,7a3,3,0,0,1,6,0v3H50Zm0,13h4V48H48.97A4.924,4.924,0,0,0,50,45ZM18,7a3.009,3.009,0,0,1,3-3H49.03A4.924,4.924,0,0,0,48,7V45a3,3,0,0,1-6,0V43a1,1,0,0,0-1-1H18ZM40,44v1a4.985,4.985,0,0,0,1,3H17a3.009,3.009,0,0,1-3-3V44ZM13.03,48H10V20h6V42H13a1,1,0,0,0-1,1v2A4.924,4.924,0,0,0,13.03,48ZM6,19a3.009,3.009,0,0,1,3-3h7v2H9a1,1,0,0,0-1,1V49a1,1,0,0,0,1,1H55a1,1,0,0,0,1-1V19a1,1,0,0,0-1-1H50V16h5a3.009,3.009,0,0,1,3,3V49a3.009,3.009,0,0,1-3,3H9a3.009,3.009,0,0,1-3-3ZM36,54v1a1,1,0,0,1-1,1H29a1,1,0,0,1-1-1V54Zm24,3a3.009,3.009,0,0,1-3,3H7a3.009,3.009,0,0,1-3-3V54H26v1a3.009,3.009,0,0,0,3,3h6a3.009,3.009,0,0,0,3-3V54H60Z"/><path d="M27,15a1,1,0,0,0,1-1h1.142a3.915,3.915,0,0,0,.425,1.019l-.81.81a1,1,0,0,0-1.414,1.414l1.414,1.414a1,1,0,0,0,1.414-1.414l.81-.81A3.915,3.915,0,0,0,32,16.858V18a1,1,0,0,0,0,2h2a1,1,0,0,0,0-2V16.858a3.915,3.915,0,0,0,1.019-.425l.81.81a1,1,0,1,0,1.414,1.414l1.414-1.414a1,1,0,1,0-1.414-1.414l-.81-.81A3.915,3.915,0,0,0,36.858,14H38a1,1,0,0,0,2,0V12a1,1,0,0,0-2,0H36.858a3.915,3.915,0,0,0-.425-1.019l.81-.81a1,1,0,1,0,1.414-1.414L37.243,7.343a1,1,0,0,0-1.414,1.414l-.81.81A3.915,3.915,0,0,0,34,9.142V8a1,1,0,0,0,0-2H32a1,1,0,0,0,0,2V9.142a3.915,3.915,0,0,0-1.019.425l-.81-.81a1,1,0,0,0-1.414-1.414L27.343,8.757a1,1,0,1,0,1.414,1.414l.81.81A3.915,3.915,0,0,0,29.142,12H28a1,1,0,0,0-2,0v2A1,1,0,0,0,27,15Zm6-4a2,2,0,1,1-2,2A2,2,0,0,1,33,11Z"/><path d="M27,24H45a1,1,0,0,0,0-2H27a1,1,0,0,0,0,2Z"/><path d="M27,28H45a1,1,0,0,0,0-2H27a1,1,0,0,0,0,2Z"/><path d="M21,32H45a1,1,0,0,0,0-2H21a1,1,0,0,0,0,2Z"/><path d="M21,36H45a1,1,0,0,0,0-2H21a1,1,0,0,0,0,2Z"/><path d="M21,40H45a1,1,0,0,0,0-2H21a1,1,0,0,0,0,2Z"/><path d="M21,24h2a1,1,0,0,0,0-2H21a1,1,0,0,0,0,2Z"/><path d="M21,28h2a1,1,0,0,0,0-2H21a1,1,0,0,0,0,2Z"/></g></svg>
