<?xml version="1.0"?>
<svg xmlns="http://www.w3.org/2000/svg" viewBox="0 0 64 64" width="512" height="512"><g id="protect-covid19-coronavirus-hand-safe"><path d="M61,52H59V43.77a4.856,4.856,0,0,1,.81-2.69c.01-.01.02-.01.02-.02A6.8,6.8,0,0,0,61,37.23V14.5a3.478,3.478,0,0,0-1.02-2.48,3.519,3.519,0,0,0-2.27-1.01,3.27,3.27,0,0,0-1.71.37V9.5A3.5,3.5,0,0,0,52.5,6a3.446,3.446,0,0,0-1.5.35V5.5a3.5,3.5,0,0,0-7,0v.85A3.446,3.446,0,0,0,42.5,6a3.52,3.52,0,0,0-2.48,1.02A3.478,3.478,0,0,0,39,9.5v9.06A3.906,3.906,0,0,0,37,18H35a1,1,0,0,0-1,1v3.82l-1.68-.58a1,1,0,0,0-.64,0L30,22.82V19a1,1,0,0,0-1-1H27a3.906,3.906,0,0,0-2,.56V9.5a3.479,3.479,0,0,0-5-3.15V5.5a3.5,3.5,0,0,0-7,0v.85A3.446,3.446,0,0,0,11.5,6,3.5,3.5,0,0,0,8,9.5v1.88a3.37,3.37,0,0,0-1.71-.37,3.519,3.519,0,0,0-2.27,1.01A3.478,3.478,0,0,0,3,14.5V37.23a6.808,6.808,0,0,0,1.16,3.81c0,.01.01.01.01.02A4.836,4.836,0,0,1,5,43.77V52H3a1,1,0,0,0-1,1v8a1,1,0,0,0,1,1H29a1,1,0,0,0,1-1V53a1,1,0,0,0-1-1H27V48.27a21.212,21.212,0,0,0,3.97,2.81l.6.33a1,1,0,0,0,.48.12.938.938,0,0,0,.48-.13l.55-.3A20.707,20.707,0,0,0,37,48.32V52H35a1,1,0,0,0-1,1v8a1,1,0,0,0,1,1H61a1,1,0,0,0,1-1V53A1,1,0,0,0,61,52ZM41,9.5a1.5,1.5,0,0,1,.44-1.06A1.481,1.481,0,0,1,42.5,8,1.5,1.5,0,0,1,44,9.5V24a1,1,0,0,0,2,0V5.5a1.5,1.5,0,0,1,3,0V24a1,1,0,0,0,2,0V9.5a1.5,1.5,0,0,1,3,0V24a1,1,0,0,0,2,0V14.66a1.773,1.773,0,0,1,.54-1.26,1.435,1.435,0,0,1,1.05-.4,1.482,1.482,0,0,1,.97.44A1.5,1.5,0,0,1,59,14.5V37.23a4.856,4.856,0,0,1-.81,2.69c-.01.01-.02.01-.02.02A6.8,6.8,0,0,0,57,43.77V52H39V46.27a21.015,21.015,0,0,0,5-13.59V26.94a1,1,0,0,0-.68-.95L41,25.2ZM36,20h1a2.006,2.006,0,0,1,2,2v2.52L36,23.5ZM25,22a2.006,2.006,0,0,1,2-2h1v3.5l-3,1.02ZM5,14.5a1.5,1.5,0,0,1,.44-1.06A1.482,1.482,0,0,1,6.41,13a1.435,1.435,0,0,1,1.05.4A1.773,1.773,0,0,1,8,14.66V24a1,1,0,0,0,2,0V9.5a1.5,1.5,0,0,1,3,0V24a1,1,0,0,0,2,0V5.5a1.5,1.5,0,0,1,3,0V24a1,1,0,0,0,2,0V9.5a1.5,1.5,0,0,1,3,0V25.2l-2.32.79a1,1,0,0,0-.68.95v5.69a21,21,0,0,0,5,13.59V52H7V43.77a6.808,6.808,0,0,0-1.16-3.81c0-.01-.01-.01-.01-.02A4.836,4.836,0,0,1,5,37.23ZM28,54v6H4V54Zm4.12-4.65-.07.04-.12-.07A18.959,18.959,0,0,1,22,32.63V27.66l10-3.41,10,3.41v5.02a18.991,18.991,0,0,1-4.69,12.49.176.176,0,0,0-.04.05A19.084,19.084,0,0,1,32.12,49.35ZM60,60H36V54H60Z"/><path d="M57,56H55a1,1,0,0,0,0,2h2a1,1,0,0,0,0-2Z"/><path d="M9,56H7a1,1,0,0,0,0,2H9a1,1,0,0,0,0-2Z"/><path d="M38.778,31.222a1,1,0,0,0-1.414,0L31,37.586l-2.829-2.829a1,1,0,1,0-1.414,1.414l3.536,3.536a1,1,0,0,0,1.414,0l7.071-7.071A1,1,0,0,0,38.778,31.222Z"/></g></svg>
