<svg height="512" viewBox="0 0 64 64" width="512" xmlns="http://www.w3.org/2000/svg"><g id="protection-covid19-coronavirus-hand-clean"><path d="m56.32 10.05-24-8a1 1 0 0 0 -.64 0l-24 8a1.014 1.014 0 0 0 -.68.95v15.75a36.786 36.786 0 0 0 20.45 33.09l4.1 2.05a.975.975 0 0 0 .9 0l4.1-2.05a36.786 36.786 0 0 0 20.45-33.09v-15.75a1.014 1.014 0 0 0 -.68-.95zm-1.32 16.7a34.814 34.814 0 0 1 -19.35 31.31l-3.65 1.82-3.65-1.82a34.814 34.814 0 0 1 -19.35-31.31v-15.03l23-7.67 23 7.67z"/><path d="m50.32 14.37-18-6a1 1 0 0 0 -.64 0l-18 6a1.014 1.014 0 0 0 -.68.95v11.43a30.775 30.775 0 0 0 11.29 23.93l.02.02a30.886 30.886 0 0 0 5.82 3.77l1.42.71a.975.975 0 0 0 .9 0l1.42-.71a30.886 30.886 0 0 0 5.82-3.77c0-.01.01-.01.02-.02a30.775 30.775 0 0 0 11.29-23.93v-11.43a1.014 1.014 0 0 0 -.68-.95zm-10.86 24.75a5.036 5.036 0 0 0 -1.46 3.54v6.84a29.789 29.789 0 0 1 -5.03 3.19l-.97.48-.97-.48a29.789 29.789 0 0 1 -5.03-3.19v-6.84a5.036 5.036 0 0 0 -1.46-3.54l-.66-.66a3 3 0 0 1 -.88-2.12v-9.34a2.006 2.006 0 0 1 2 2v3a1 1 0 0 0 2 0v-13.89a1.073 1.073 0 0 1 .92-1.1.91.91 0 0 1 .79.3.928.928 0 0 1 .29.69v10a1 1 0 0 0 2 0v-11.89a1.073 1.073 0 0 1 .92-1.1.91.91 0 0 1 .79.3.928.928 0 0 1 .29.69v12a1 1 0 0 0 2 0v-10a1 1 0 0 1 1-1 .949.949 0 0 1 .71.31.928.928 0 0 1 .29.69v10a1 1 0 0 0 2 0v-6a1 1 0 0 1 1-1 .949.949 0 0 1 .71.31.928.928 0 0 1 .29.69v14.34a3 3 0 0 1 -.88 2.12zm9.54-12.37a28.82 28.82 0 0 1 -9 21.01v-5.1a3 3 0 0 1 .88-2.12l.66-.66a5.036 5.036 0 0 0 1.46-3.54v-14.34a2.954 2.954 0 0 0 -.87-2.11 3.087 3.087 0 0 0 -3.13-.72v-1.17a2.954 2.954 0 0 0 -.87-2.11 3.061 3.061 0 0 0 -3.23-.68 2.942 2.942 0 0 0 -.77-1.32 2.989 2.989 0 0 0 -2.4-.88 3.036 3.036 0 0 0 -2.6 2.21 3.031 3.031 0 0 0 -1.4-.21 3.087 3.087 0 0 0 -2.73 3.1v7.45a3.906 3.906 0 0 0 -2-.56h-1a1 1 0 0 0 -1 1v10.34a5.036 5.036 0 0 0 1.46 3.54l.66.66a3 3 0 0 1 .88 2.12v5.1a28.82 28.82 0 0 1 -9-21.01v-10.71l17-5.67 17 5.67z"/><path d="m35.536 33.05-3.536 3.536-1.414-1.414a1 1 0 1 0 -1.414 1.414l2.121 2.121a1 1 0 0 0 1.414 0l4.243-4.243a1 1 0 0 0 -1.414-1.414z"/><path d="m19 17h2v2h-2z"/><path d="m17 19h2v2h-2z"/><path d="m21 19h2v2h-2z"/><path d="m19 21h2v2h-2z"/><path d="m31 43h2v2h-2z"/><path d="m29 45h2v2h-2z"/><path d="m33 45h2v2h-2z"/><path d="m31 47h2v2h-2z"/></g></svg>