<?xml version="1.0"?>
<svg xmlns="http://www.w3.org/2000/svg" viewBox="0 0 64 64" width="512" height="512"><g id="reciept-bill-covid19-coronavirus-healthcare"><path d="M56,2H16a5,5,0,0,0-5,5V37.05a10,10,0,0,0,0,19.9V59a1.014,1.014,0,0,0,.4.8l2.67,2a.99.99,0,0,0,1.2,0l2.06-1.55,2.06,1.55a.99.99,0,0,0,1.2,0l2.07-1.55,2.06,1.55a.99.99,0,0,0,1.2,0l2.07-1.55,2.06,1.55a.99.99,0,0,0,1.2,0l2.07-1.55,2.06,1.55a.99.99,0,0,0,1.2,0l2.07-1.55,2.07,1.55a.99.99,0,0,0,1.2,0l2.06-1.55,2.07,1.55a.99.99,0,0,0,1.2,0l2.08-1.55L51.4,61.8a1.029,1.029,0,0,0,.6.2.908.908,0,0,0,.45-.11A.988.988,0,0,0,53,61V24h7a1,1,0,0,0,1-1V7A5,5,0,0,0,56,2ZM4,47a8,8,0,1,1,8,8A8.011,8.011,0,0,1,4,47ZM51,7V59l-1.07-.8a.99.99,0,0,0-1.2,0l-2.08,1.55L44.58,58.2a.99.99,0,0,0-1.2,0l-2.06,1.55L39.25,58.2a.99.99,0,0,0-1.2,0l-2.07,1.55L33.92,58.2a.99.99,0,0,0-1.2,0l-2.07,1.55L28.59,58.2a.99.99,0,0,0-1.2,0l-2.07,1.55L23.26,58.2a.99.99,0,0,0-1.2,0l-2.07,1.55L17.93,58.2a.99.99,0,0,0-1.2,0l-2.06,1.55L13,58.5V56.95a10,10,0,0,0,0-19.9V7a3.009,3.009,0,0,1,3-3H52.03A4.924,4.924,0,0,0,51,7Zm8,15H53V7a3,3,0,0,1,6,0Z"/><path d="M37,9H35V7a1,1,0,0,0-1-1H30a1,1,0,0,0-1,1V9H27a1,1,0,0,0-1,1v4a1,1,0,0,0,1,1h2v2a1,1,0,0,0,1,1h4a1,1,0,0,0,1-1V15h2a1,1,0,0,0,1-1V10A1,1,0,0,0,37,9Zm-1,4H34a1,1,0,0,0-1,1v2H31V14a1,1,0,0,0-1-1H28V11h2a1,1,0,0,0,1-1V8h2v2a1,1,0,0,0,1,1h2Z"/><path d="M46,20H18a1,1,0,0,0-1,1V37a1,1,0,0,0,1,1H46a1,1,0,0,0,1-1V21A1,1,0,0,0,46,20ZM21,36H19V26h2Zm0-12H19V22h2ZM45,36H23V26H45Zm0-12H23V22H45Z"/><path d="M13,53V51.9c1.741-.327,3-1.477,3-2.9,0-1.682-1.757-3-4-3-1.221,0-2-.592-2-1s.779-1,2-1,2,.592,2,1a1,1,0,0,0,2,0c0-1.421-1.259-2.571-3-2.9V41a1,1,0,0,0-2,0v1.1c-1.741.327-3,1.477-3,2.9,0,1.682,1.757,3,4,3,1.221,0,2,.592,2,1s-.779,1-2,1-2-.592-2-1a1,1,0,0,0-2,0c0,1.421,1.259,2.571,3,2.9V53a1,1,0,0,0,2,0Z"/><path d="M46,42H30a1,1,0,0,0,0,2H46a1,1,0,0,0,0-2Z"/><path d="M46,46H30a1,1,0,0,0,0,2H46a1,1,0,0,0,0-2Z"/><path d="M46,50H30a1,1,0,0,0,0,2H46a1,1,0,0,0,0-2Z"/><path d="M26,42H25a1,1,0,0,0,0,2h1a1,1,0,0,0,0-2Z"/><path d="M26,46H25a1,1,0,0,0,0,2h1a1,1,0,0,0,0-2Z"/><path d="M26,50H25a1,1,0,0,0,0,2h1a1,1,0,0,0,0-2Z"/></g></svg>
