<?xml version="1.0"?>
<svg xmlns="http://www.w3.org/2000/svg" viewBox="0 0 64 64" width="512" height="512"><g id="scan-people-coronavirus-tempurature-covid19"><path d="M24.168,26.555a1,1,0,0,0,1.387.277l3-2a1,1,0,0,0-.108-1.727l-6-3a1,1,0,0,0-.894,1.79l4.459,2.229-1.567,1.044A1,1,0,0,0,24.168,26.555Z"/><path d="M33,23.862A21.806,21.806,0,0,0,26.15,8.046,21.817,21.817,0,0,0,9.839,2.03,21.487,21.487,0,0,0,2.6,3.684a1,1,0,1,0,.773,1.844,19.53,19.53,0,0,1,6.565-1.5A19.863,19.863,0,0,1,24.772,9.5,19.835,19.835,0,0,1,31,24.033c.008.223.013.37,4.556,12.967H31a1,1,0,0,0-1,1v4H24a1,1,0,0,0,0,2h7a1,1,0,0,0,1-1V39h3.556a2,2,0,0,0,1.881-2.677C34.923,29.35,33.25,24.654,33,23.862Z"/><path d="M31,45a1,1,0,0,0-1,1v4a1,1,0,0,1-1,1H15.657a3.02,3.02,0,0,1-2.121-.878l-1.829-1.829a1,1,0,0,0-1.414,1.414l1.829,1.829A4.966,4.966,0,0,0,15.657,53h5.1L19.2,60H2.974a1,1,0,0,0,0,2H20a1,1,0,0,0,.976-.783L22.8,53H29a3,3,0,0,0,3-3V46A1,1,0,0,0,31,45Z"/><path d="M57.93,46.63A1,1,0,0,0,57,46H46a1,1,0,0,1,0-2h1a1,1,0,0,0,0-2H44a1,1,0,0,1,0-2h3a1,1,0,0,0,0-2H42a1,1,0,0,1,0-2h5a1,1,0,0,0,0-2H44a1,1,0,0,1,0-2H55a.983.983,0,0,0,.81-.42,1,1,0,0,0,.14-.9l-1.53-4.57,1.16-.47a1.01,1.01,0,0,1,1.29.53l3.22,7.24A.992.992,0,0,0,61,34a1.013,1.013,0,0,0,.41-.09.993.993,0,0,0,.5-1.32L58.7,25.35a2.993,2.993,0,0,0-3.86-1.56l-1.05.42L51.72,18a4.984,4.984,0,0,0-3.98-3.36L37.15,13.01A1,1,0,0,0,36,14v8a1,1,0,0,0,.76.97l6.88,1.72a1.017,1.017,0,0,1,.72.7L45.67,30H44a2.994,2.994,0,0,0-2.78,4.12,2.978,2.978,0,0,0,0,5.76,2.975,2.975,0,0,0,2,4A2.994,2.994,0,0,0,46,48H56.32l3.75,9.37A1,1,0,0,0,61,58a.971.971,0,0,0,.37-.07,1.011,1.011,0,0,0,.56-1.3ZM51.28,23.01l-1.72.69L48.3,20.56l1.91-.77Zm-7.16-.26L38,21.22V15.17l9.43,1.45a2.966,2.966,0,0,1,2.05,1.31l-1.92.77a2.011,2.011,0,0,0-1.12,2.6l1.26,3.14a1.989,1.989,0,0,0,1.07,1.1,2.143,2.143,0,0,0,.79.16,2.111,2.111,0,0,0,.74-.14l1.62-.65L53.61,30H47.75l-1.47-5.16A3,3,0,0,0,44.12,22.75Z"/></g></svg>
