<?xml version="1.0"?>
<svg xmlns="http://www.w3.org/2000/svg" viewBox="0 0 64 64" width="512" height="512"><g id="soap-hygiene-handwash-covid19-coronavirus"><path d="M59,26H58V24a2.006,2.006,0,0,0-2-2V15a1,1,0,0,0-1-1H51a1,1,0,0,0-1,1H47a1,1,0,0,0-1,1v3a1,1,0,0,0,1,1h3v2a2.006,2.006,0,0,0-2,2v2h-.88A13.9,13.9,0,0,0,39,20.41V19a3.009,3.009,0,0,0-3-3V9.82A3,3,0,0,0,35,4H15a1,1,0,0,0-1,1,5,5,0,0,0,5,5h9v6a3.009,3.009,0,0,0-3,3v1.41A13.9,13.9,0,0,0,14.74,30.77a14.085,14.085,0,0,0-.31,4.62L15.1,42H7a5,5,0,0,0-5,5V57a5,5,0,0,0,5,5H61a1,1,0,0,0,1-1V29A3.009,3.009,0,0,0,59,26ZM37,19v1.07c-.45-.04-.9-.07-1.36-.07H35V18h1A1,1,0,0,1,37,19ZM19,8a3.014,3.014,0,0,1-2.83-2H35a1,1,0,0,1,0,2Zm11,8V10h4v6Zm3,2v2H31V18Zm-6,1a1,1,0,0,1,1-1h1v2h-.64c-.46,0-.91.03-1.36.07Zm7,38a3.009,3.009,0,0,1-3,3H7a3.009,3.009,0,0,1-3-3V47a3.009,3.009,0,0,1,3-3H31a3.009,3.009,0,0,1,3,3ZM31,42H29c0-1.07,1.57-3.53,3-5.4,1.43,1.87,3,4.32,3,5.4a2.916,2.916,0,0,1-.43,1.51A4.977,4.977,0,0,0,31,42ZM44,60H34.97A4.924,4.924,0,0,0,36,57V50h8Zm0-12H36V47a5.026,5.026,0,0,0-.3-1.65A4.949,4.949,0,0,0,37,42c0-2.45-3.53-6.79-4.23-7.64a1.032,1.032,0,0,0-1.54,0C30.53,35.21,27,39.55,27,42H17.11l-.69-6.81A12.16,12.16,0,0,1,16.54,32H44Zm0-19v1H17.05a11.933,11.933,0,0,1,11.31-8h7.28a11.908,11.908,0,0,1,9.48,4.68A2.975,2.975,0,0,0,44,29Zm12-5v2H54V24Zm-4-8h2v6H52Zm-4,2V17h2v1Zm2,6h2v2H50ZM60,60H46V54H60Zm0-8H46V36H60Zm0-18H46V29a1,1,0,0,1,1-1H59a1,1,0,0,1,1,1Z"/><path d="M23,46H9a3,3,0,0,0-3,3v6a1,1,0,0,0,2,0V49a1,1,0,0,1,1-1H23a1,1,0,0,0,0-2Z"/><path d="M11.094,18.155a2.99,2.99,0,1,0,3.184,4.774,4,4,0,1,0-3.184-4.774ZM12,22a1,1,0,1,1,1-1A1,1,0,0,1,12,22Zm3-5a2,2,0,0,1,0,4,3,3,0,0,0-1.846-2.768A2,2,0,0,1,15,17Z"/><path d="M6,25a3,3,0,1,0,3,3A3,3,0,0,0,6,25Zm0,4a1,1,0,1,1,1-1A1,1,0,0,1,6,29Z"/><path d="M11,14a3,3,0,1,0-3-3A3,3,0,0,0,11,14Zm0-4a1,1,0,1,1-1,1A1,1,0,0,1,11,10Z"/><path d="M5,20a3,3,0,1,0-3-3A3,3,0,0,0,5,20Zm0-4a1,1,0,1,1-1,1A1,1,0,0,1,5,16Z"/><path d="M48,47h2v2a1,1,0,0,0,1,1h4a1,1,0,0,0,1-1V47h2a1,1,0,0,0,1-1V42a1,1,0,0,0-1-1H56V39a1,1,0,0,0-1-1H51a1,1,0,0,0-1,1v2H48a1,1,0,0,0-1,1v4A1,1,0,0,0,48,47Zm1-4h2a1,1,0,0,0,1-1V40h2v2a1,1,0,0,0,1,1h2v2H55a1,1,0,0,0-1,1v2H52V46a1,1,0,0,0-1-1H49Z"/></g></svg>
