<?xml version="1.0"?>
<svg xmlns="http://www.w3.org/2000/svg" viewBox="0 0 64 64" width="512" height="512"><g id="thermometer-people-coronavirus-tempurature-covid19"><path d="M33.535,19.95A7.074,7.074,0,0,0,35,21.066V22a1,1,0,0,0,2,0v-.162A7.045,7.045,0,0,0,38.485,22H39a1,1,0,0,0,0-2h-.515a4.969,4.969,0,0,1-3.535-1.464l-.242-.243a1,1,0,0,0-1.416,1.414Z"/><path d="M30.464,19.95l.243-.243a1,1,0,0,0-1.414-1.414l-.243.243A4.967,4.967,0,0,1,25.515,20H25a1,1,0,0,0,0,2h.515A7.045,7.045,0,0,0,27,21.838V22a1,1,0,0,0,2,0v-.934A7.042,7.042,0,0,0,30.464,19.95Z"/><path d="M30.212,27.615A1,1,0,0,0,31,28h2a1,1,0,0,0,0-2h-.719l.689-2.757a1,1,0,1,0-1.94-.486l-1,4A1,1,0,0,0,30.212,27.615Z"/><path d="M58.5,29H47.94a4.945,4.945,0,0,0-2.23.53l-.31.15a3,3,0,0,1-1.34.32h-.75a11.476,11.476,0,0,0,.5-2H45a3.009,3.009,0,0,0,3-3V22a2.986,2.986,0,0,0-1-2.22V11a9.014,9.014,0,0,0-9-9H30a4.989,4.989,0,0,0-4.33,2.51A2.994,2.994,0,0,0,24,4H22a5,5,0,0,0-5,5V19.78A2.986,2.986,0,0,0,16,22v3a3.009,3.009,0,0,0,3,3h1.18A12,12,0,0,0,26,36.38V39a1,1,0,0,1-1,1H18.95A11.97,11.97,0,0,0,7.01,50.81L6,60.9a1.036,1.036,0,0,0,.26.77A1,1,0,0,0,7,62H57a1,1,0,0,0,.74-.33A1.036,1.036,0,0,0,58,60.9L56.99,50.81A11.97,11.97,0,0,0,45.05,40H39a1,1,0,0,1-1-1V36.38A11.65,11.65,0,0,0,39.92,35h4.14a3,3,0,0,1,1.34.32l.31.15a4.945,4.945,0,0,0,2.23.53H58.5a3.5,3.5,0,0,0,0-7ZM46,22v3a1,1,0,0,1-1,1H44V21h1A1,1,0,0,1,46,22ZM20,26H19a1,1,0,0,1-1-1V22a1,1,0,0,1,1-1h1Zm0-9v2H19V9a3.009,3.009,0,0,1,3-3h2a1,1,0,0,1,1,1,1,1,0,0,0,2,0,3.009,3.009,0,0,1,3-3h8a7.008,7.008,0,0,1,7,7v8H44V17a5,5,0,0,0-5-5,3.009,3.009,0,0,0-3-3H28a3.009,3.009,0,0,0-3,3A5,5,0,0,0,20,17Zm17-5v2a1,1,0,0,1-1,1H28a1,1,0,0,1-1-1V12a1,1,0,0,1,1-1h8A1,1,0,0,1,37,12ZM22,26V17a3.009,3.009,0,0,1,3-3,3.009,3.009,0,0,0,3,3h8a3.009,3.009,0,0,0,3-3,3.009,3.009,0,0,1,3,3v9a9.936,9.936,0,0,1-.85,4H32.5a2.5,2.5,0,0,0,0,5h3.85A9.993,9.993,0,0,1,22,26Zm12,6v1H32.5a.5.5,0,0,1,0-1Zm3.73,9.71a5.972,5.972,0,0,1-11.46,0A3,3,0,0,0,28,39V37.3a11.779,11.779,0,0,0,8,0V39A3,3,0,0,0,37.73,41.71Zm2,.29h5.32A9.972,9.972,0,0,1,55,51.01L55.89,60H46V52a1,1,0,0,0-2,0v8H20V52a1,1,0,0,0-2,0v8H8.1L9,51.01A9.972,9.972,0,0,1,18.95,42h5.32a7.979,7.979,0,0,0,15.46,0ZM56,34H47.94a3,3,0,0,1-1.34-.32l-.31-.15A4.945,4.945,0,0,0,44.06,33H36V32h8.06a4.945,4.945,0,0,0,2.23-.53l.31-.15A3,3,0,0,1,47.94,31H56Zm2.5,0H58V31h.5a1.5,1.5,0,0,1,0,3Z"/><path d="M21,35c0-1.278-1.522-3.621-2.177-4.568a1.038,1.038,0,0,0-1.646,0C16.522,31.379,15,33.722,15,35a3,3,0,0,0,6,0Zm-4,0a7.457,7.457,0,0,1,1-2.147A7.462,7.462,0,0,1,19,35a1,1,0,0,1-2,0Z"/></g></svg>
