<?xml version="1.0"?>
<svg xmlns="http://www.w3.org/2000/svg" viewBox="0 0 64 64" width="512" height="512"><g id="tissue-covid19-coronavirus-paper-hygiene"><path d="M49,2H15A13.012,13.012,0,0,0,2,15V39a1,1,0,0,0,1,1H7V61a1,1,0,0,0,1.6.8l2.07-1.55,2.08,1.55a.99.99,0,0,0,1.2,0l2.07-1.55,2.07,1.55a.99.99,0,0,0,1.2,0l2.07-1.55,2.06,1.55a.99.99,0,0,0,1.2,0l2.07-1.55,2.06,1.55a.99.99,0,0,0,1.2,0l2.07-1.55,2.06,1.55a1,1,0,0,0,1.21,0l2.06-1.55,2.07,1.55a.99.99,0,0,0,1.2,0l2.06-1.55,2.07,1.55a.99.99,0,0,0,1.2,0l2.06-1.55,2.07,1.55a.99.99,0,0,0,1.2,0l2.06-1.55L55.4,61.8a1.029,1.029,0,0,0,.6.2.908.908,0,0,0,.45-.11A.977.977,0,0,0,57,61V40h4a1,1,0,0,0,1-1V15A13.012,13.012,0,0,0,49,2Zm6,57-1.06-.8a.99.99,0,0,0-1.2,0l-2.06,1.55L48.61,58.2a.99.99,0,0,0-1.2,0l-2.06,1.55L43.28,58.2a.99.99,0,0,0-1.2,0l-2.06,1.55L37.95,58.2a.99.99,0,0,0-1.2,0l-2.06,1.55L32.62,58.2a.99.99,0,0,0-1.2,0l-2.07,1.55L27.28,58.2a.99.99,0,0,0-1.2,0l-2.06,1.55L21.96,58.2a.99.99,0,0,0-1.2,0l-2.07,1.55L16.62,58.2a.99.99,0,0,0-1.2,0l-2.07,1.55L11.27,58.2a1.006,1.006,0,0,0-.6-.2.977.977,0,0,0-.59.2L9,59V40h4v9a1,1,0,0,0,2,0V40h4v3a1,1,0,0,0,2,0V40H31V52.59l-1.12-1.13a1,1,0,0,0-1.42,1.42l2.83,2.83a1.014,1.014,0,0,0,1.42,0l2.83-2.83a1,1,0,0,0-1.42-1.42L33,52.59V40H43v3a1,1,0,0,0,2,0V40h4v9a1,1,0,0,0,2,0V40h4Zm5-21H4V15A11.021,11.021,0,0,1,13,4.19V33a1,1,0,0,0,2,0V4H49V33a1,1,0,0,0,2,0V4.19A11.021,11.021,0,0,1,60,15Z"/><path d="M40,7H26a1,1,0,0,0,0,2H40a3,3,0,0,1,3,3v1a1,1,0,0,0,2,0V12A5.006,5.006,0,0,0,40,7Z"/><path d="M32,22c-6.46,0-13,1.717-13,5s6.54,5,13,5,13-1.717,13-5S38.46,22,32,22Zm0,8c-7.117,0-11-1.982-11-3s3.883-3,11-3,11,1.982,11,3S39.117,30,32,30Z"/><path d="M20,9h2a1,1,0,0,0,0-2H20a1,1,0,0,0,0,2Z"/></g></svg>
