<?xml version="1.0"?>
<svg xmlns="http://www.w3.org/2000/svg" viewBox="0 0 64 64" width="512" height="512"><g id="world-covid19-global-coronavirus-protection"><path d="M32,2A30.008,30.008,0,1,0,62,32,30.037,30.037,0,0,0,32,2ZM54.28,15.06A27.841,27.841,0,0,1,59.97,31H49.98a46.408,46.408,0,0,0-1.99-12.76A30.864,30.864,0,0,0,54.28,15.06ZM53,13.51a28.667,28.667,0,0,1-5.65,2.83A26.412,26.412,0,0,0,40.06,5.19,27.983,27.983,0,0,1,53,13.51ZM43.99,31c0-.16.01-.32.01-.5V24a.992.992,0,0,0-.66-.94l-6.36-2.32a44.158,44.158,0,0,0,9.15-1.85A44.873,44.873,0,0,1,47.99,31Zm3.99,2a45.068,45.068,0,0,1-1.87,12.12,43.653,43.653,0,0,0-8.03-1.74A17.048,17.048,0,0,0,43.81,33ZM33,4.06c5.25.57,9.82,5.59,12.5,12.93A44.442,44.442,0,0,1,33,18.98ZM20,24v6.5c0,.18.01.34.01.5h-4a44.873,44.873,0,0,1,1.86-12.11,44.292,44.292,0,0,0,9.15,1.85l-6.36,2.32A.992.992,0,0,0,20,24Zm5.92,19.38a43.653,43.653,0,0,0-8.03,1.74A45.068,45.068,0,0,1,16.02,33H20.2A17.03,17.03,0,0,0,25.92,43.38ZM18.5,16.99C21.18,9.65,25.75,4.63,31,4.06V18.98A44.442,44.442,0,0,1,18.5,16.99Zm5.44-11.8a26.412,26.412,0,0,0-7.29,11.15A28.667,28.667,0,0,1,11,13.51,27.983,27.983,0,0,1,23.94,5.19ZM9.72,15.06a30.864,30.864,0,0,0,6.29,3.18A46.408,46.408,0,0,0,14.02,31H4.03A27.841,27.841,0,0,1,9.72,15.06Zm.01,33.87A27.541,27.541,0,0,1,4.04,33h9.98A46.615,46.615,0,0,0,16,45.77,30.394,30.394,0,0,0,9.73,48.93Zm1.26,1.57a28.131,28.131,0,0,1,5.65-2.83A25.946,25.946,0,0,0,23.9,58.8,27.922,27.922,0,0,1,10.99,50.5ZM31,59.94c-5.05-.56-9.71-5.39-12.47-12.92a41.836,41.836,0,0,1,9.85-1.87c.16.09.31.18.48.28L31,46.59ZM29.83,43.68c-.24-.14-.46-.27-.69-.41h-.01a15.064,15.064,0,0,1-7.06-11.39A11.217,11.217,0,0,1,22,30.5V24.7l10-3.64L42,24.7v5.8a10.125,10.125,0,0,1-.08,1.41,15.006,15.006,0,0,1-7.06,11.36c-.23.14-.45.27-.68.4L32,44.86ZM33,59.94V46.59l2.15-1.17c.16-.09.31-.18.47-.27a41.836,41.836,0,0,1,9.85,1.87C42.71,54.55,38.05,59.38,33,59.94Zm7.1-1.14a25.946,25.946,0,0,0,7.26-11.13,28.131,28.131,0,0,1,5.65,2.83A27.922,27.922,0,0,1,40.1,58.8Zm14.17-9.87A30.394,30.394,0,0,0,48,45.77,46.615,46.615,0,0,0,49.98,33h9.98A27.541,27.541,0,0,1,54.27,48.93Z"/><path d="M38,30a1,1,0,0,0-1,1H35.858a3.915,3.915,0,0,0-.425-1.019l.81-.81a1,1,0,1,0,1.414-1.414l-1.414-1.414a1,1,0,0,0-1.414,1.414l-.81.81A3.915,3.915,0,0,0,33,28.142V27a1,1,0,0,0,0-2H31a1,1,0,0,0,0,2v1.142a3.915,3.915,0,0,0-1.019.425l-.81-.81a1,1,0,0,0-1.414-1.414l-1.414,1.414a1,1,0,1,0,1.414,1.414l.81.81A3.915,3.915,0,0,0,28.142,31H27a1,1,0,0,0-2,0v2a1,1,0,0,0,2,0h1.142a3.915,3.915,0,0,0,.425,1.019l-.81.81a1,1,0,0,0-1.414,1.414l1.414,1.414a1,1,0,1,0,1.414-1.414l.81-.81A3.915,3.915,0,0,0,31,35.858V37a1,1,0,0,0,0,2h2a1,1,0,0,0,0-2V35.858a3.915,3.915,0,0,0,1.019-.425l.81.81a1,1,0,1,0,1.414,1.414l1.414-1.414a1,1,0,1,0-1.414-1.414l-.81-.81A3.915,3.915,0,0,0,35.858,33H37a1,1,0,0,0,2,0V31A1,1,0,0,0,38,30Zm-6,4a2,2,0,1,1,2-2A2,2,0,0,1,32,34Z"/></g></svg>
